<svg width="438" height="778" viewBox="0 0 438 778" fill="none" xmlns="http://www.w3.org/2000/svg">
<g clip-path="url(#clip0_14_3)">
<path d="M339.691 729.778H107.603C99.1459 729.778 90.7713 728.112 82.9577 724.876C75.1441 721.639 68.0445 716.895 62.0642 710.915C56.0839 704.935 51.3401 697.835 48.1036 690.022C44.8672 682.208 43.2014 673.833 43.2014 665.376V64.4018C43.2207 47.3273 50.0121 30.9577 62.0856 18.8842C74.1591 6.81071 90.5288 0.0193292 107.603 0H339.69C356.764 0.0192762 373.134 6.81063 385.207 18.8841C397.281 30.9576 404.072 47.3273 404.092 64.4018V172.947H408.091V252.923H404.092V665.376C404.092 682.456 397.307 698.837 385.229 710.915C373.152 722.992 356.771 729.778 339.691 729.778V729.778ZM107.603 2C91.059 2.01868 75.1977 8.59914 63.4991 20.2977C51.8005 31.9963 45.2201 47.8576 45.2014 64.4018V665.376C45.2013 673.571 46.8153 681.685 49.9512 689.256C53.0872 696.827 57.6836 703.706 63.4782 709.501C69.2727 715.295 76.1519 719.892 83.7228 723.028C91.2938 726.164 99.4083 727.778 107.603 727.778H339.69C356.24 727.778 372.112 721.203 383.814 709.501C395.517 697.798 402.092 681.926 402.092 665.376V250.923H406.091V174.947H402.092V64.4018C402.073 47.8576 395.493 31.9963 383.794 20.2977C372.095 8.59914 356.234 2.01868 339.69 2H107.603Z" fill="black"/>
<path d="M342.247 713.284H109.047C96.2285 713.269 83.9391 708.171 74.8749 699.107C65.8107 690.043 60.7119 677.753 60.697 664.935V64.8442C60.7119 52.0255 65.8107 39.7361 74.8748 30.6719C83.939 21.6077 96.2285 16.509 109.047 16.4941H138.824L138.263 17.8711C136.935 21.1353 136.429 24.6759 136.79 28.1814C137.152 31.687 138.369 35.0501 140.335 37.9749C142.3 40.8998 144.955 43.2967 148.065 44.9549C151.174 46.6131 154.644 47.4817 158.168 47.4844H291.127C294.651 47.4816 298.12 46.6129 301.23 44.9546C304.34 43.2964 306.994 40.8995 308.96 37.9747C310.926 35.0499 312.143 31.6868 312.504 28.1813C312.865 24.6758 312.359 21.1352 311.031 17.8711L310.47 16.4941H342.247C355.066 16.509 367.355 21.6078 376.419 30.672C385.483 39.7362 390.582 52.0256 390.597 64.8442V664.935C390.582 677.753 385.483 690.043 376.419 699.107C367.355 708.171 355.066 713.269 342.247 713.284V713.284ZM109.047 18.4941C96.7587 18.5083 84.9776 23.3962 76.2883 32.0854C67.5991 40.7747 62.7112 52.5558 62.697 64.8442V664.935C62.7113 677.223 67.5992 689.004 76.2885 697.693C84.9777 706.382 96.7587 711.27 109.047 711.284H342.247C354.535 711.27 366.316 706.382 375.006 697.693C383.695 689.004 388.583 677.223 388.597 664.935V64.8442C388.583 52.5558 383.695 40.7748 375.006 32.0855C366.317 23.3963 354.536 18.5084 342.247 18.4941H313.395C314.581 22.0279 314.91 25.7932 314.355 29.4793C313.8 33.1653 312.376 36.6665 310.2 39.6937C308.025 42.721 305.161 45.1876 301.845 46.8899C298.529 48.5922 294.855 49.4815 291.128 49.4844H158.167C154.439 49.4816 150.766 48.5924 147.449 46.8901C144.133 45.1878 141.269 42.7212 139.094 39.6939C136.919 36.6667 135.494 33.1655 134.939 29.4795C134.383 25.7934 134.713 22.028 135.899 18.4941H109.047Z" fill="#CCCCCC"/>
<g filter="url(#filter0_d_14_3)">
<path d="M416.247 390.766H21.123C15.5228 390.76 10.1537 388.532 6.19373 384.573C2.23376 380.613 0.00630197 375.243 0 369.643V242.905C0.00630197 237.305 2.23376 231.936 6.19373 227.976C10.1537 224.016 15.5228 221.789 21.123 221.782H416.247C421.847 221.789 427.216 224.016 431.176 227.976C435.136 231.936 437.364 237.305 437.37 242.905V369.643C437.364 375.243 435.136 380.613 431.176 384.573C427.216 388.532 421.847 390.76 416.247 390.766V390.766Z" fill="white"/>
</g>
<path d="M416.247 390.766H21.123C15.5228 390.76 10.1537 388.532 6.19373 384.573C2.23376 380.613 0.00630197 375.243 0 369.643V242.905C0.00630197 237.305 2.23376 231.936 6.19373 227.976C10.1537 224.016 15.5228 221.789 21.123 221.782H416.247C421.847 221.789 427.216 224.016 431.176 227.976C435.136 231.936 437.364 237.305 437.37 242.905V369.643C437.364 375.243 435.136 380.613 431.176 384.573C427.216 388.532 421.847 390.76 416.247 390.766V390.766ZM21.123 224.267C16.1816 224.273 11.4442 226.238 7.95016 229.733C4.45609 233.227 2.49065 237.964 2.48505 242.905V369.643C2.49065 374.585 4.45609 379.322 7.95016 382.816C11.4442 386.31 16.1816 388.276 21.123 388.281H416.247C421.188 388.276 425.926 386.31 429.42 382.816C432.914 379.322 434.879 374.585 434.885 369.643V242.905C434.879 237.964 432.914 233.227 429.42 229.733C425.926 226.238 421.188 224.273 416.247 224.267H21.123Z" fill="black"/>
<path d="M270.5 299.44H132.579C129.943 299.44 127.414 298.393 125.55 296.529C123.686 294.665 122.639 292.136 122.639 289.5C122.639 286.864 123.686 284.336 125.55 282.471C127.414 280.607 129.943 279.56 132.579 279.56H270.5C273.136 279.56 275.664 280.607 277.528 282.471C279.393 284.336 280.44 286.864 280.44 289.5C280.44 292.136 279.393 294.665 277.528 296.529C275.664 298.393 273.136 299.44 270.5 299.44V299.44Z" fill="url(#paint0_linear_14_3)"/>
<path d="M398.48 332.989H132.579C129.943 332.989 127.414 331.941 125.55 330.077C123.686 328.213 122.639 325.685 122.639 323.048C122.639 320.412 123.686 317.884 125.55 316.02C127.414 314.156 129.943 313.108 132.579 313.108H398.48C401.116 313.108 403.645 314.156 405.509 316.02C407.373 317.884 408.42 320.412 408.42 323.048C408.42 325.685 407.373 328.213 405.509 330.077C403.645 331.941 401.116 332.989 398.48 332.989Z" fill="url(#paint1_linear_14_3)"/>
<path d="M66.2258 343.55C86.8127 343.55 103.502 326.861 103.502 306.274C103.502 285.687 86.8127 268.999 66.2258 268.999C45.6389 268.999 28.95 285.687 28.95 306.274C28.95 326.861 45.6389 343.55 66.2258 343.55Z" fill="url(#paint2_linear_14_3)"/>
<path d="M398.465 373.371H363.675C361.038 373.371 358.51 372.324 356.646 370.46C354.782 368.595 353.734 366.067 353.734 363.431C353.734 360.794 354.782 358.266 356.646 356.402C358.51 354.538 361.038 353.49 363.675 353.49H398.465C399.771 353.49 401.063 353.748 402.269 354.247C403.475 354.747 404.571 355.479 405.494 356.402C406.417 357.325 407.149 358.421 407.649 359.627C408.149 360.833 408.406 362.125 408.406 363.431C408.406 364.736 408.149 366.029 407.649 367.235C407.149 368.441 406.417 369.536 405.494 370.46C404.571 371.383 403.475 372.115 402.269 372.614C401.063 373.114 399.771 373.371 398.465 373.371V373.371Z" fill="white"/>
<path d="M398.465 373.371H363.675C361.038 373.371 358.51 372.324 356.646 370.46C354.782 368.595 353.734 366.067 353.734 363.431C353.734 360.794 354.782 358.266 356.646 356.402C358.51 354.538 361.038 353.49 363.675 353.49H398.465C399.771 353.49 401.063 353.748 402.269 354.247C403.475 354.747 404.571 355.479 405.494 356.402C406.417 357.325 407.149 358.421 407.649 359.627C408.149 360.833 408.406 362.125 408.406 363.431C408.406 364.736 408.149 366.029 407.649 367.235C407.149 368.441 406.417 369.536 405.494 370.46C404.571 371.383 403.475 372.115 402.269 372.614C401.063 373.114 399.771 373.371 398.465 373.371V373.371Z" fill="black"/>
<path d="M338.616 189.289H118.754C115.637 189.285 112.65 188.046 110.446 185.843C108.243 183.639 107.004 180.652 107 177.535V107.013C107.004 103.897 108.243 100.91 110.446 98.7061C112.65 96.5026 115.637 95.2632 118.754 95.2596H338.616C341.733 95.2632 344.72 96.5026 346.924 98.7061C349.127 100.91 350.367 103.897 350.37 107.013V177.535C350.367 180.651 349.127 183.639 346.924 185.843C344.72 188.046 341.733 189.285 338.616 189.289V189.289ZM118.754 96.6424C116.004 96.6455 113.368 97.7392 111.424 99.6834C109.48 101.628 108.386 104.264 108.383 107.013V177.535C108.386 180.285 109.48 182.921 111.424 184.865C113.368 186.809 116.004 187.903 118.754 187.906H338.616C341.366 187.903 344.002 186.809 345.946 184.865C347.891 182.921 348.984 180.285 348.987 177.535V107.013C348.984 104.264 347.891 101.628 345.946 99.6834C344.002 97.7392 341.366 96.6455 338.616 96.6424H118.754Z" fill="#CCCCCC"/>
<path d="M257.517 138.472H180.772C179.307 138.47 177.902 137.886 176.866 136.849C175.83 135.812 175.249 134.406 175.249 132.941C175.249 131.475 175.83 130.069 176.866 129.032C177.902 127.995 179.307 127.411 180.772 127.409H257.517C258.982 127.411 260.387 127.995 261.423 129.032C262.459 130.069 263.041 131.475 263.041 132.941C263.041 134.406 262.459 135.812 261.423 136.849C260.387 137.886 258.982 138.47 257.517 138.472V138.472Z" fill="#E6E6E6"/>
<path d="M328.73 157.139H180.772C179.307 157.137 177.902 156.554 176.866 155.517C175.83 154.48 175.249 153.074 175.249 151.608C175.249 150.142 175.83 148.737 176.866 147.7C177.902 146.663 179.307 146.079 180.772 146.077H328.73C329.457 146.076 330.177 146.218 330.849 146.496C331.521 146.773 332.132 147.181 332.646 147.694C333.161 148.208 333.569 148.818 333.847 149.49C334.126 150.161 334.269 150.881 334.269 151.608C334.269 152.335 334.126 153.055 333.847 153.727C333.569 154.398 333.161 155.008 332.646 155.522C332.132 156.036 331.521 156.443 330.849 156.72C330.177 156.998 329.457 157.14 328.73 157.139V157.139Z" fill="#E6E6E6"/>
<path d="M143.851 163.016C155.306 163.016 164.592 153.73 164.592 142.274C164.592 130.819 155.306 121.533 143.851 121.533C132.395 121.533 123.109 130.819 123.109 142.274C123.109 153.73 132.395 163.016 143.851 163.016Z" fill="#E6E6E6"/>
<path d="M328.722 179.61H309.363C308.636 179.61 307.916 179.468 307.244 179.191C306.572 178.913 305.962 178.506 305.447 177.992C304.933 177.478 304.525 176.868 304.246 176.197C303.968 175.525 303.824 174.805 303.824 174.078C303.824 173.351 303.968 172.632 304.246 171.96C304.525 171.288 304.933 170.678 305.447 170.165C305.962 169.651 306.572 169.244 307.244 168.966C307.916 168.689 308.636 168.546 309.363 168.547H328.722C330.188 168.549 331.593 169.133 332.628 170.17C333.664 171.207 334.246 172.613 334.246 174.078C334.246 175.544 333.664 176.95 332.628 177.987C331.593 179.024 330.188 179.608 328.722 179.61V179.61Z" fill="white"/>
<path d="M328.722 179.61H309.363C308.636 179.61 307.916 179.468 307.244 179.191C306.572 178.913 305.962 178.506 305.447 177.992C304.933 177.478 304.525 176.868 304.246 176.197C303.968 175.525 303.824 174.805 303.824 174.078C303.824 173.351 303.968 172.632 304.246 171.96C304.525 171.288 304.933 170.678 305.447 170.165C305.962 169.651 306.572 169.244 307.244 168.966C307.916 168.689 308.636 168.546 309.363 168.547H328.722C330.188 168.549 331.593 169.133 332.628 170.17C333.664 171.207 334.246 172.613 334.246 174.078C334.246 175.544 333.664 176.95 332.628 177.987C331.593 179.024 330.188 179.608 328.722 179.61V179.61Z" fill="#CCCCCC"/>
<path d="M338.616 515.289H118.754C115.637 515.285 112.65 514.046 110.446 511.843C108.243 509.639 107.004 506.652 107 503.535V433.013C107.004 429.897 108.243 426.91 110.446 424.706C112.65 422.503 115.637 421.263 118.754 421.26H338.616C341.733 421.263 344.72 422.503 346.924 424.706C349.127 426.91 350.367 429.897 350.37 433.013V503.535C350.367 506.651 349.127 509.639 346.924 511.843C344.72 514.046 341.733 515.285 338.616 515.289V515.289ZM118.754 422.642C116.004 422.646 113.368 423.739 111.424 425.683C109.48 427.628 108.386 430.264 108.383 433.013V503.535C108.386 506.285 109.48 508.921 111.424 510.865C113.368 512.809 116.004 513.903 118.754 513.906H338.616C341.366 513.903 344.002 512.809 345.946 510.865C347.891 508.921 348.984 506.285 348.987 503.535V433.013C348.984 430.264 347.891 427.628 345.946 425.683C344.002 423.739 341.366 422.646 338.616 422.642H118.754Z" fill="#CCCCCC"/>
<path d="M257.517 464.472H180.772C179.305 464.472 177.898 463.889 176.861 462.852C175.824 461.814 175.241 460.407 175.241 458.941C175.241 457.474 175.824 456.067 176.861 455.029C177.898 453.992 179.305 453.409 180.772 453.409H257.517C258.982 453.411 260.387 453.995 261.423 455.032C262.459 456.069 263.04 457.475 263.04 458.941C263.04 460.406 262.459 461.812 261.423 462.849C260.387 463.886 258.982 464.47 257.517 464.472V464.472Z" fill="#E6E6E6"/>
<path d="M328.73 483.139H180.772C179.307 483.137 177.902 482.554 176.866 481.517C175.83 480.479 175.249 479.074 175.249 477.608C175.249 476.142 175.83 474.737 176.866 473.7C177.902 472.663 179.307 472.079 180.772 472.077H328.73C330.197 472.077 331.604 472.66 332.641 473.697C333.679 474.734 334.261 476.141 334.261 477.608C334.261 479.075 333.679 480.482 332.641 481.519C331.604 482.556 330.197 483.139 328.73 483.139Z" fill="#E6E6E6"/>
<path d="M143.851 489.016C155.306 489.016 164.592 479.73 164.592 468.274C164.592 456.819 155.306 447.533 143.851 447.533C132.395 447.533 123.109 456.819 123.109 468.274C123.109 479.73 132.395 489.016 143.851 489.016Z" fill="#E6E6E6"/>
<path d="M328.722 505.609H309.363C307.896 505.609 306.489 505.027 305.452 503.99C304.415 502.952 303.832 501.545 303.832 500.078C303.832 498.611 304.415 497.205 305.452 496.167C306.489 495.13 307.896 494.547 309.363 494.547H328.722C330.188 494.549 331.593 495.133 332.628 496.17C333.664 497.207 334.246 498.613 334.246 500.078C334.246 501.544 333.664 502.95 332.628 503.987C331.593 505.024 330.188 505.608 328.722 505.609V505.609Z" fill="white"/>
<path d="M328.722 505.609H309.363C307.896 505.609 306.489 505.027 305.452 503.99C304.415 502.952 303.832 501.545 303.832 500.078C303.832 498.611 304.415 497.205 305.452 496.167C306.489 495.13 307.896 494.547 309.363 494.547H328.722C330.188 494.549 331.593 495.133 332.628 496.17C333.664 497.207 334.246 498.613 334.246 500.078C334.246 501.544 333.664 502.95 332.628 503.987C331.593 505.024 330.188 505.608 328.722 505.609V505.609Z" fill="#CCCCCC"/>
<path d="M338.616 646.289H118.754C115.637 646.286 112.65 645.046 110.446 642.843C108.243 640.639 107.004 637.652 107 634.535V564.013C107.004 560.897 108.243 557.91 110.446 555.706C112.65 553.503 115.637 552.263 118.754 552.26H338.616C341.733 552.263 344.72 553.503 346.924 555.706C349.127 557.91 350.367 560.897 350.37 564.013V634.535C350.367 637.652 349.127 640.639 346.924 642.843C344.72 645.046 341.733 646.286 338.616 646.289V646.289ZM118.754 553.643C116.004 553.646 113.368 554.739 111.424 556.684C109.48 558.628 108.386 561.264 108.383 564.013V634.535C108.386 637.285 109.48 639.921 111.424 641.865C113.368 643.809 116.004 644.903 118.754 644.906H338.616C341.366 644.903 344.002 643.809 345.946 641.865C347.891 639.921 348.984 637.285 348.987 634.535V564.013C348.984 561.264 347.891 558.628 345.946 556.683C344.002 554.739 341.366 553.646 338.616 553.643H118.754Z" fill="#CCCCCC"/>
<path d="M257.517 595.472H180.772C179.305 595.472 177.898 594.889 176.861 593.852C175.824 592.814 175.241 591.407 175.241 589.941C175.241 588.474 175.824 587.067 176.861 586.029C177.898 584.992 179.305 584.409 180.772 584.409H257.517C258.982 584.411 260.387 584.995 261.423 586.032C262.459 587.069 263.04 588.475 263.04 589.941C263.04 591.406 262.459 592.812 261.423 593.849C260.387 594.886 258.982 595.47 257.517 595.472V595.472Z" fill="#E6E6E6"/>
<path d="M328.73 614.139H180.772C179.307 614.137 177.902 613.554 176.866 612.517C175.83 611.479 175.249 610.074 175.249 608.608C175.249 607.142 175.83 605.737 176.866 604.7C177.902 603.663 179.307 603.079 180.772 603.077H328.73C330.197 603.077 331.604 603.66 332.641 604.697C333.679 605.734 334.261 607.141 334.261 608.608C334.261 610.075 333.679 611.482 332.641 612.519C331.604 613.556 330.197 614.139 328.73 614.139Z" fill="#E6E6E6"/>
<path d="M143.851 620.016C155.306 620.016 164.592 610.73 164.592 599.274C164.592 587.819 155.306 578.532 143.851 578.532C132.395 578.532 123.109 587.819 123.109 599.274C123.109 610.73 132.395 620.016 143.851 620.016Z" fill="#E6E6E6"/>
<path d="M328.722 636.609H309.363C307.896 636.609 306.489 636.027 305.452 634.99C304.415 633.952 303.832 632.545 303.832 631.078C303.832 629.611 304.415 628.205 305.452 627.167C306.489 626.13 307.896 625.547 309.363 625.547H328.722C330.188 625.549 331.593 626.133 332.628 627.17C333.664 628.207 334.246 629.613 334.246 631.078C334.246 632.544 333.664 633.95 332.628 634.987C331.593 636.024 330.188 636.608 328.722 636.609V636.609Z" fill="white"/>
<path d="M328.722 636.609H309.363C307.896 636.609 306.489 636.027 305.452 634.99C304.415 633.952 303.832 632.545 303.832 631.078C303.832 629.611 304.415 628.205 305.452 627.167C306.489 626.13 307.896 625.547 309.363 625.547H328.722C330.188 625.549 331.593 626.133 332.628 627.17C333.664 628.207 334.246 629.613 334.246 631.078C334.246 632.544 333.664 633.95 332.628 634.987C331.593 636.024 330.188 636.608 328.722 636.609V636.609Z" fill="#CCCCCC"/>
<path d="M201.657 765.803H213.917L219.749 718.515L201.655 718.516L201.657 765.803Z" fill="#FFB8B8"/>
<path d="M198.53 761.801L222.673 761.8H222.674C224.695 761.8 226.696 762.198 228.562 762.971C230.429 763.744 232.125 764.877 233.554 766.306C234.983 767.735 236.116 769.431 236.89 771.298C237.663 773.165 238.061 775.165 238.061 777.186V777.686L198.53 777.687L198.53 761.801Z" fill="#2F2E41"/>
<path d="M152.657 765.803H164.917L170.749 718.515L152.655 718.516L152.657 765.803Z" fill="#FFB8B8"/>
<path d="M149.53 761.801L173.673 761.8H173.674C175.695 761.8 177.696 762.198 179.562 762.971C181.429 763.744 183.125 764.877 184.554 766.306C185.983 767.735 187.116 769.431 187.89 771.298C188.663 773.165 189.061 775.165 189.061 777.186V777.686L149.53 777.687L149.53 761.801Z" fill="#2F2E41"/>
<path d="M204.104 438.422C217.669 438.422 228.665 427.426 228.665 413.861C228.665 400.297 217.669 389.3 204.104 389.3C190.539 389.3 179.543 400.297 179.543 413.861C179.543 427.426 190.539 438.422 204.104 438.422Z" fill="#FFB8B8"/>
<path d="M220.62 755.597H197.87C197.274 755.597 196.685 755.479 196.135 755.249C195.586 755.02 195.087 754.683 194.669 754.26C194.25 753.836 193.92 753.333 193.697 752.781C193.474 752.229 193.363 751.638 193.37 751.042L194.692 643.011C194.697 642.628 194.555 642.257 194.294 641.975C194.034 641.693 193.675 641.521 193.292 641.496C192.91 641.47 192.531 641.592 192.236 641.837C191.94 642.081 191.75 642.43 191.703 642.811L178.462 751.641C178.329 752.732 177.801 753.736 176.978 754.465C176.155 755.194 175.094 755.596 173.995 755.597H151.026C150.406 755.597 149.792 755.469 149.223 755.22C148.655 754.972 148.144 754.608 147.722 754.153C147.301 753.697 146.979 753.159 146.775 752.573C146.571 751.987 146.491 751.365 146.54 750.747L161.707 556.671L162.12 556.626L234.749 548.783L225.116 751.311C225.062 752.467 224.565 753.557 223.727 754.355C222.89 755.154 221.777 755.598 220.62 755.597V755.597Z" fill="url(#paint3_linear_14_3)"/>
<path d="M256.462 389.037C256.848 389.434 257.265 389.799 257.708 390.13L255.13 439.657L244.406 445.147L250.577 462.415L270.506 454.54C272.117 453.904 273.477 452.762 274.383 451.287C275.289 449.812 275.692 448.083 275.532 446.359L270.311 390.18C272.02 388.905 273.3 387.141 273.981 385.121C274.662 383.101 274.712 380.921 274.124 378.872C273.536 376.823 272.339 375.002 270.69 373.65C269.042 372.298 267.022 371.48 264.897 371.305C262.773 371.13 260.645 371.605 258.798 372.669C256.95 373.732 255.47 375.333 254.555 377.258C253.639 379.183 253.331 381.341 253.672 383.445C254.013 385.549 254.986 387.5 256.463 389.037H256.462Z" fill="#FFB8B8"/>
<path d="M255.334 441.5L262.878 462.939C263.093 463.549 263.173 464.198 263.114 464.842C263.056 465.486 262.859 466.11 262.537 466.671C262.215 467.232 261.777 467.717 261.251 468.093C260.725 468.469 260.124 468.728 259.489 468.851L237.244 473.158C234.116 474.239 230.688 474.036 227.71 472.593C224.733 471.15 222.449 468.585 221.36 465.46C220.271 462.336 220.465 458.907 221.9 455.926C223.336 452.945 225.894 450.654 229.016 449.557L248.99 439.014C249.562 438.712 250.192 438.537 250.837 438.501C251.483 438.465 252.129 438.568 252.731 438.804C253.333 439.04 253.877 439.403 254.326 439.868C254.776 440.334 255.119 440.89 255.334 441.5V441.5Z" fill="black"/>
<path d="M150.076 389.037C149.69 389.434 149.273 389.799 148.83 390.13L151.408 439.657L162.133 445.147L155.962 462.415L136.032 454.54C134.422 453.904 133.062 452.762 132.156 451.287C131.249 449.812 130.846 448.083 131.006 446.359L136.227 390.18C134.519 388.905 133.239 387.141 132.558 385.121C131.877 383.101 131.827 380.921 132.414 378.872C133.002 376.823 134.2 375.002 135.848 373.65C137.496 372.298 139.517 371.48 141.641 371.305C143.766 371.13 145.893 371.605 147.741 372.669C149.588 373.732 151.068 375.333 151.984 377.258C152.9 379.182 153.208 381.341 152.867 383.445C152.526 385.549 151.553 387.5 150.076 389.037V389.037Z" fill="#FFB8B8"/>
<path d="M153.808 438.804C154.41 438.568 155.056 438.464 155.701 438.5C156.347 438.537 156.977 438.712 157.549 439.014L177.523 449.557C180.644 450.654 183.203 452.945 184.638 455.926C186.073 458.907 186.268 462.336 185.179 465.46C184.089 468.585 181.806 471.15 178.828 472.593C175.851 474.036 172.422 474.239 169.295 473.158L147.05 468.851C146.415 468.728 145.814 468.469 145.288 468.093C144.762 467.717 144.323 467.232 144.002 466.671C143.68 466.11 143.483 465.486 143.424 464.842C143.365 464.198 143.446 463.549 143.661 462.939L151.205 441.5C151.419 440.89 151.763 440.333 152.212 439.868C152.661 439.403 153.206 439.04 153.808 438.804Z" fill="black"/>
<path d="M162.591 568.585C161.424 568.583 160.304 568.127 159.468 567.313C158.631 566.5 158.143 565.393 158.107 564.227C157.711 551.956 157.031 509.495 164.929 478.322C167.085 469.806 171.923 462.21 178.729 456.656C185.535 451.103 193.947 447.886 202.722 447.483V447.483C211.359 447.011 219.925 449.271 227.205 453.942C234.486 458.614 240.11 465.459 243.281 473.506C256.556 507.209 269.098 548.752 253.462 555.268C232.967 563.807 178.938 567.614 162.867 568.577C162.775 568.583 162.683 568.585 162.591 568.585Z" fill="black"/>
<path d="M213.643 418.048C213.514 414.915 214.3 411.812 215.906 409.118C217.511 406.425 219.866 404.257 222.684 402.88C230.15 399.026 234.84 390.805 232.784 383.298C230.154 373.689 217.076 367.457 206.479 370.763C203.612 371.781 200.846 373.067 198.218 374.603L191.295 378.314C188.338 379.794 185.486 381.477 182.761 383.351C178.68 386.359 175.48 390.408 173.498 395.075C171.515 399.742 170.822 404.855 171.491 409.881C172.854 419.65 179.252 428.609 188.009 434.742C191.358 437.245 195.226 438.965 199.328 439.774C203.525 440.466 208.198 439.679 211.267 437.069C216.063 432.989 215.568 426.158 214.016 420.452C213.811 419.665 213.686 418.86 213.643 418.048V418.048Z" fill="url(#paint4_linear_14_3)"/>
</g>
<defs>
<filter id="filter0_d_14_3" x="-8" y="221.782" width="453.37" height="188.984" filterUnits="userSpaceOnUse" color-interpolation-filters="sRGB">
<feFlood flood-opacity="0" result="BackgroundImageFix"/>
<feColorMatrix in="SourceAlpha" type="matrix" values="0 0 0 0 0 0 0 0 0 0 0 0 0 0 0 0 0 0 127 0" result="hardAlpha"/>
<feOffset dy="12"/>
<feGaussianBlur stdDeviation="4"/>
<feComposite in2="hardAlpha" operator="out"/>
<feColorMatrix type="matrix" values="0 0 0 0 0 0 0 0 0 0 0 0 0 0 0 0 0 0 0.16 0"/>
<feBlend mode="normal" in2="BackgroundImageFix" result="effect1_dropShadow_14_3"/>
<feBlend mode="normal" in="SourceGraphic" in2="effect1_dropShadow_14_3" result="shape"/>
</filter>
<linearGradient id="paint0_linear_14_3" x1="132.5" y1="290" x2="273.5" y2="290" gradientUnits="userSpaceOnUse">
<stop stop-color="#EF5B5B"/>
<stop offset="1" stop-color="#FFBA49"/>
</linearGradient>
<linearGradient id="paint1_linear_14_3" x1="138" y1="323" x2="401" y2="323" gradientUnits="userSpaceOnUse">
<stop stop-color="#EF5B5B"/>
<stop offset="1" stop-color="#FFBA49"/>
</linearGradient>
<linearGradient id="paint2_linear_14_3" x1="66.2258" y1="268.999" x2="66.2258" y2="343.55" gradientUnits="userSpaceOnUse">
<stop stop-color="#EF5B5B"/>
<stop offset="1" stop-color="#FFBA49"/>
</linearGradient>
<linearGradient id="paint3_linear_14_3" x1="190.637" y1="548.783" x2="190.637" y2="755.597" gradientUnits="userSpaceOnUse">
<stop/>
<stop offset="0.0815352" stop-color="#FFBA49"/>
<stop offset="0.9998" stop-color="#EF5B5B"/>
<stop offset="0.9999" stop-color="#FFBA49" stop-opacity="0.01"/>
</linearGradient>
<linearGradient id="paint4_linear_14_3" x1="202.256" y1="369.869" x2="202.256" y2="440.012" gradientUnits="userSpaceOnUse">
<stop stop-color="#FFBA49"/>
<stop offset="1" stop-color="#EF5B5B"/>
</linearGradient>
<clipPath id="clip0_14_3">
<rect width="437.37" height="777.687" fill="white"/>
</clipPath>
</defs>
</svg>
