<svg width="743" height="713" viewBox="0 0 743 713" fill="none" xmlns="http://www.w3.org/2000/svg">
<g clip-path="url(#clip0_8_2)">
<path d="M433.814 168.893H429.914V61.916C429.914 53.7849 428.312 45.7335 425.201 38.2214C422.089 30.7094 417.528 23.8838 411.779 18.1344C406.029 12.385 399.203 7.82446 391.691 4.71311C384.179 1.60177 376.127 0.000582657 367.996 0.000976635H141.349C133.218 0.00084531 125.167 1.60226 117.655 4.71378C110.143 7.82531 103.317 12.386 97.5676 18.1355C91.8181 23.8849 87.2574 30.7105 84.1459 38.2226C81.0344 45.7346 79.433 53.786 79.4331 61.917V648.799C79.4331 665.22 85.9563 680.968 97.5676 692.579C109.179 704.191 124.927 710.714 141.348 710.714H367.996C384.417 710.714 400.165 704.191 411.777 692.579C423.388 680.968 429.911 665.22 429.911 648.799V245.041H433.811L433.814 168.893Z" fill="#EF5B5B"/>
<path d="M417.287 57.768V652.943C417.285 665.393 412.339 677.333 403.537 686.138C394.734 694.942 382.795 699.891 370.345 699.895H139.045C126.59 699.897 114.644 694.951 105.835 686.146C97.0265 677.341 92.0757 665.398 92.072 652.943V57.768C92.0757 45.3135 97.0263 33.3705 105.835 24.5657C114.643 15.7609 126.589 10.8154 139.043 10.817H167.101C165.723 14.205 165.199 17.8795 165.574 21.5177C165.949 25.1558 167.212 28.6461 169.252 31.6817C171.292 34.7174 174.046 37.2056 177.273 38.9275C180.499 40.6494 184.1 41.5524 187.757 41.557H319.625C323.282 41.5524 326.883 40.6494 330.109 38.9275C333.336 37.2056 336.09 34.7174 338.13 31.6817C340.17 28.6461 341.433 25.1558 341.808 21.5177C342.183 17.8795 341.659 14.205 340.281 10.817H370.336C382.786 10.8191 394.726 15.7652 403.53 24.5678C412.334 33.3704 417.283 45.309 417.287 57.759V57.768Z" fill="#010000"/>
<path d="M257.16 295.875C230.826 295.885 205.566 285.434 186.937 266.82C168.308 248.207 157.835 222.955 157.823 196.621V196.533C157.823 196.325 157.823 196.106 157.835 195.898C158.135 141.498 202.698 97.198 257.16 97.198C270.205 97.1973 283.123 99.766 295.175 104.757C307.227 109.749 318.179 117.065 327.403 126.289C336.628 135.513 343.946 146.463 348.939 158.515C353.932 170.567 356.502 183.484 356.503 196.53C356.503 209.575 353.935 222.492 348.943 234.545C343.952 246.597 336.635 257.548 327.411 266.773C318.188 275.998 307.237 283.316 295.185 288.308C283.133 293.301 270.216 295.871 257.171 295.872H257.16V295.875ZM257.16 99.288C231.486 99.3454 206.872 109.532 188.665 127.634C170.459 145.736 160.132 170.292 159.927 195.965C159.916 196.187 159.916 196.365 159.916 196.534C159.914 215.77 165.616 234.575 176.301 250.571C186.986 266.566 202.175 279.034 219.946 286.397C237.718 293.76 257.273 295.688 276.14 291.937C295.007 288.185 312.338 278.924 325.941 265.322C339.544 251.721 348.808 234.392 352.562 215.525C356.316 196.659 354.391 177.103 347.03 159.33C339.669 141.558 327.204 126.368 311.21 115.68C295.215 104.993 276.411 99.2882 257.175 99.288H257.16Z" fill="#EF5B5B"/>
<path d="M213.715 195.689C225.491 195.689 235.037 186.143 235.037 174.367C235.037 162.591 225.491 153.045 213.715 153.045C201.939 153.045 192.393 162.591 192.393 174.367C192.393 186.143 201.939 195.689 213.715 195.689Z" fill="#EF5B5B"/>
<path d="M280.577 240.07H175.977C175.846 240.072 175.715 240.061 175.586 240.039L225.058 154.353C225.36 153.819 225.798 153.375 226.327 153.066C226.857 152.757 227.459 152.594 228.072 152.594C228.686 152.594 229.288 152.757 229.817 153.066C230.347 153.375 230.785 153.819 231.087 154.353L264.287 211.853L265.877 214.604L280.577 240.07Z" fill="#EF5B5B"/>
<path d="M338.813 240.071H248.345L265.875 214.607L267.136 212.772L289.98 179.588C290.384 179.08 290.89 178.663 291.466 178.364C292.042 178.065 292.674 177.89 293.322 177.852C293.969 177.813 294.618 177.911 295.225 178.14C295.832 178.368 296.385 178.722 296.846 179.178C296.964 179.308 297.074 179.445 297.175 179.588L338.813 240.071Z" fill="#EF5B5B"/>
<path d="M359.881 400.317H154.344C153.335 400.316 152.368 399.915 151.654 399.201C150.94 398.488 150.539 397.52 150.538 396.511V345.527C150.539 344.518 150.941 343.551 151.654 342.837C152.368 342.124 153.335 341.722 154.344 341.721H359.881C360.89 341.722 361.857 342.124 362.571 342.837C363.284 343.551 363.686 344.518 363.687 345.527V396.512C363.686 397.521 363.284 398.488 362.571 399.202C361.857 399.915 360.89 400.317 359.881 400.318V400.317ZM154.344 343.243C153.738 343.244 153.158 343.484 152.73 343.913C152.301 344.341 152.061 344.921 152.06 345.527V396.512C152.061 397.118 152.301 397.698 152.73 398.126C153.158 398.555 153.738 398.795 154.344 398.796H359.881C360.487 398.795 361.067 398.555 361.496 398.126C361.924 397.698 362.165 397.118 362.165 396.512V345.527C362.165 344.921 361.924 344.341 361.496 343.913C361.067 343.484 360.487 343.244 359.881 343.243H154.344Z" fill="#EF5B5B"/>
<path d="M180.987 387.005C189.816 387.005 196.973 379.848 196.973 371.019C196.973 362.19 189.816 355.033 180.987 355.033C172.158 355.033 165.001 362.19 165.001 371.019C165.001 379.848 172.158 387.005 180.987 387.005Z" fill="#EF5B5B"/>
<path d="M217.908 360.361C217.201 360.361 216.523 360.642 216.024 361.141C215.524 361.641 215.243 362.319 215.243 363.025C215.243 363.732 215.524 364.41 216.024 364.91C216.523 365.409 217.201 365.69 217.908 365.69H343.513C343.868 365.704 344.221 365.646 344.554 365.521C344.886 365.396 345.19 365.206 345.447 364.962C345.705 364.718 345.911 364.425 346.054 364.1C346.197 363.775 346.274 363.425 346.28 363.07C346.285 362.716 346.22 362.363 346.088 362.034C345.956 361.704 345.759 361.405 345.509 361.153C345.26 360.9 344.962 360.7 344.634 360.565C344.307 360.429 343.955 360.36 343.6 360.362H217.908V360.361Z" fill="#EF5B5B"/>
<path d="M217.908 376.347C217.201 376.347 216.523 376.628 216.024 377.127C215.524 377.627 215.243 378.305 215.243 379.011C215.243 379.718 215.524 380.396 216.024 380.896C216.523 381.395 217.201 381.676 217.908 381.676H343.513C343.868 381.69 344.221 381.632 344.554 381.507C344.886 381.382 345.19 381.192 345.447 380.948C345.705 380.704 345.911 380.411 346.054 380.086C346.197 379.761 346.274 379.411 346.28 379.056C346.285 378.702 346.22 378.349 346.088 378.02C345.956 377.69 345.759 377.391 345.509 377.139C345.26 376.886 344.962 376.686 344.634 376.551C344.307 376.415 343.955 376.346 343.6 376.348H217.908V376.347Z" fill="#EF5B5B"/>
<path d="M359.881 485.577H154.344C153.335 485.576 152.368 485.175 151.654 484.461C150.94 483.748 150.539 482.78 150.538 481.771V430.787C150.539 429.778 150.941 428.811 151.654 428.097C152.368 427.384 153.335 426.982 154.344 426.981H359.881C360.89 426.982 361.857 427.384 362.571 428.097C363.284 428.811 363.686 429.778 363.687 430.787V481.772C363.685 482.781 363.284 483.748 362.571 484.461C361.857 485.174 360.89 485.576 359.881 485.577ZM154.344 428.503C153.738 428.504 153.158 428.744 152.73 429.173C152.301 429.601 152.061 430.181 152.06 430.787V481.772C152.061 482.378 152.301 482.958 152.73 483.386C153.158 483.815 153.738 484.055 154.344 484.056H359.881C360.487 484.055 361.067 483.815 361.496 483.386C361.924 482.958 362.165 482.378 362.165 481.772V430.787C362.165 430.181 361.924 429.601 361.496 429.173C361.067 428.744 360.487 428.504 359.881 428.503H154.344Z" fill="#EF5B5B"/>
<path d="M180.987 472.264C189.816 472.264 196.973 465.107 196.973 456.278C196.973 447.449 189.816 440.292 180.987 440.292C172.158 440.292 165.001 447.449 165.001 456.278C165.001 465.107 172.158 472.264 180.987 472.264Z" fill="#EF5B5B"/>
<path d="M217.908 445.618C217.201 445.618 216.523 445.899 216.024 446.398C215.524 446.898 215.243 447.576 215.243 448.282C215.243 448.989 215.524 449.667 216.024 450.167C216.523 450.666 217.201 450.947 217.908 450.947H343.513C344.21 450.943 344.877 450.666 345.372 450.176C345.867 449.686 346.151 449.022 346.162 448.326C346.174 447.629 345.912 446.956 345.433 446.45C344.954 445.944 344.296 445.646 343.6 445.619H217.908V445.618Z" fill="#EF5B5B"/>
<path d="M217.908 461.607C217.201 461.607 216.523 461.888 216.024 462.387C215.524 462.887 215.243 463.565 215.243 464.272C215.243 464.978 215.524 465.656 216.024 466.156C216.523 466.655 217.201 466.936 217.908 466.936H343.513C344.21 466.932 344.877 466.656 345.372 466.166C345.867 465.676 346.151 465.011 346.162 464.315C346.174 463.618 345.912 462.945 345.433 462.439C344.954 461.933 344.296 461.635 343.6 461.608H217.908V461.607Z" fill="#EF5B5B"/>
<path d="M359.881 570.836H154.344C153.335 570.835 152.368 570.434 151.654 569.72C150.94 569.007 150.539 568.039 150.538 567.03V516.046C150.539 515.037 150.941 514.07 151.654 513.356C152.368 512.643 153.335 512.241 154.344 512.24H359.881C360.89 512.241 361.857 512.643 362.571 513.356C363.284 514.07 363.686 515.037 363.687 516.046V567.031C363.686 568.04 363.284 569.007 362.571 569.721C361.857 570.434 360.89 570.836 359.881 570.837V570.836ZM154.344 513.762C153.738 513.763 153.158 514.003 152.73 514.432C152.301 514.86 152.061 515.44 152.06 516.046V567.031C152.061 567.637 152.301 568.217 152.73 568.645C153.158 569.074 153.738 569.314 154.344 569.315H359.881C360.487 569.314 361.067 569.074 361.496 568.645C361.924 568.217 362.165 567.637 362.165 567.031V516.046C362.165 515.44 361.924 514.86 361.496 514.432C361.067 514.003 360.487 513.763 359.881 513.762H154.344Z" fill="#EF5B5B"/>
<path d="M180.987 557.524C189.816 557.524 196.973 550.367 196.973 541.538C196.973 532.709 189.816 525.552 180.987 525.552C172.158 525.552 165.001 532.709 165.001 541.538C165.001 550.367 172.158 557.524 180.987 557.524Z" fill="#EF5B5B"/>
<path d="M217.908 530.88C217.201 530.88 216.523 531.161 216.024 531.66C215.524 532.16 215.243 532.838 215.243 533.544C215.243 534.251 215.524 534.929 216.024 535.429C216.523 535.928 217.201 536.209 217.908 536.209H343.513C343.868 536.223 344.221 536.165 344.554 536.04C344.886 535.915 345.19 535.725 345.447 535.481C345.705 535.237 345.911 534.944 346.054 534.619C346.197 534.294 346.274 533.944 346.28 533.589C346.285 533.235 346.22 532.882 346.088 532.553C345.956 532.224 345.759 531.924 345.509 531.672C345.26 531.419 344.962 531.219 344.634 531.084C344.307 530.948 343.955 530.879 343.6 530.881H217.908V530.88Z" fill="#EF5B5B"/>
<path d="M217.908 546.866C217.201 546.866 216.523 547.147 216.024 547.646C215.524 548.146 215.243 548.824 215.243 549.531C215.243 550.237 215.524 550.915 216.024 551.415C216.523 551.914 217.201 552.195 217.908 552.195H343.513C343.868 552.209 344.221 552.151 344.554 552.026C344.886 551.901 345.19 551.711 345.447 551.467C345.705 551.223 345.911 550.93 346.054 550.605C346.197 550.28 346.274 549.93 346.28 549.575C346.285 549.221 346.22 548.868 346.088 548.539C345.956 548.209 345.759 547.91 345.509 547.658C345.26 547.405 344.962 547.205 344.634 547.07C344.307 546.934 343.955 546.865 343.6 546.867H217.908V546.866Z" fill="#EF5B5B"/>
<path d="M525.26 699.204H512.806L506.882 651.171H525.261L525.26 699.204Z" fill="#FEB8B8"/>
<path d="M528.436 711.275H488.282V710.767C488.282 706.622 489.929 702.647 492.86 699.716C495.79 696.785 499.765 695.138 503.91 695.138H528.437L528.436 711.275Z" fill="white"/>
<path d="M679.962 691.05L667.837 693.904L651.059 648.504L668.949 644.291L679.962 691.05Z" fill="#FEB8B8"/>
<path d="M685.821 702.072L646.736 711.272L646.62 710.778C646.149 708.78 646.076 706.709 646.406 704.682C646.735 702.656 647.461 700.715 648.541 698.969C649.621 697.223 651.034 695.707 652.7 694.508C654.366 693.308 656.252 692.449 658.25 691.978L682.122 686.357L685.821 702.072Z" fill="white"/>
<path d="M522.716 496.608C522.74 494.108 523.481 435.031 539.674 412.695L539.913 412.365L596.344 420.151L595.082 432.551C597.564 434.965 617.088 455.367 622.726 503.679L682.626 664.546L654.781 667.077L572.349 491.468L528.729 682.352H501.129L522.716 496.608Z" fill="#EF5B5B"/>
<path d="M533.063 414.875L538.579 385.915C537.499 384.525 532.714 377.85 533.779 370.025C534.474 364.92 537.521 360.443 542.838 356.716L557.138 323.354L557.331 323.241C558.294 322.674 581.059 309.51 593.47 321.93C593.78 322.17 624.337 346.43 612.07 379.148L596.922 424.598L533.063 414.875Z" fill="white"/>
<path d="M513.871 454.055C515.358 453.885 516.79 453.391 518.066 452.607C519.342 451.824 520.43 450.771 521.255 449.521C522.08 448.271 522.62 446.856 522.839 445.375C523.057 443.894 522.948 442.383 522.52 440.949L552.047 419.676L534.371 412.953L509.042 434.185C506.686 435.07 504.736 436.787 503.56 439.011C502.383 441.236 502.062 443.814 502.656 446.259C503.25 448.704 504.719 450.847 506.785 452.284C508.851 453.72 511.372 454.351 513.871 454.056V454.055Z" fill="#FEB8B8"/>
<path d="M519.298 419.641L564.376 384.125L550.976 338.338C550.344 336.17 550.166 333.895 550.452 331.655C550.737 329.415 551.481 327.258 552.637 325.318C553.707 323.489 555.147 321.904 556.865 320.665C558.583 319.425 560.541 318.557 562.614 318.118C570.331 316.485 577.336 320.806 583.431 330.963L583.478 331.055C584.486 333.52 607.97 391.571 590.039 403.986C572.498 416.129 531.824 433.807 531.415 433.986L530.938 434.192L519.298 419.641Z" fill="white"/>
<path d="M579.209 309.856C594.291 309.856 606.517 297.63 606.517 282.548C606.517 267.466 594.291 255.24 579.209 255.24C564.127 255.24 551.901 267.466 551.901 282.548C551.901 297.63 564.127 309.856 579.209 309.856Z" fill="#FEB8B8"/>
<path d="M622.02 272.798C635.362 272.798 646.178 261.982 646.178 248.64C646.178 235.298 635.362 224.482 622.02 224.482C608.678 224.482 597.862 235.298 597.862 248.64C597.862 261.982 608.678 272.798 622.02 272.798Z" fill="#EF5B5B"/>
<path d="M642.856 268.645C639.729 270.903 636.107 272.38 632.293 272.952C628.478 273.524 624.583 273.175 620.931 271.933C617.279 270.691 613.978 268.593 611.303 265.814C608.628 263.035 606.658 259.656 605.556 255.96C605.972 259.274 607.07 262.466 608.782 265.335C610.494 268.203 612.783 270.685 615.502 272.624C618.222 274.563 621.314 275.917 624.584 276.601C627.854 277.284 631.23 277.283 634.498 276.595C637.767 275.908 640.858 274.551 643.576 272.608C646.293 270.666 648.579 268.182 650.288 265.311C651.996 262.441 653.091 259.248 653.503 255.933C653.916 252.618 653.636 249.254 652.682 246.053C653.222 250.354 652.595 254.721 650.866 258.696C649.137 262.671 646.371 266.108 642.856 268.645Z" fill="#EF5B5B"/>
<path d="M547.518 268.669C551.735 261.119 553.349 257.969 558.787 253.369C563.596 249.308 569.511 248.116 574.282 251.963C580.084 249.43 586.561 248.883 592.706 250.409C598.851 251.935 604.32 255.447 608.263 260.401C612.207 265.354 614.404 271.471 614.513 277.802C614.623 284.132 612.639 290.322 608.869 295.409C605.1 300.496 599.755 304.195 593.667 305.933C587.579 307.67 581.087 307.349 575.2 305.017C569.314 302.686 564.362 298.476 561.113 293.042C557.865 287.607 556.503 281.252 557.238 274.963C553.09 274.384 551.665 269.255 547.518 268.669Z" fill="#EF5B5B"/>
<path d="M740.479 712.575H1.93799C0.866988 712.575 0 712.107 0 711.53C0 710.953 0.867988 710.485 1.93799 710.485H740.479C741.549 710.485 742.417 710.953 742.417 711.53C742.417 712.107 741.55 712.575 740.479 712.575Z" fill="black"/>
</g>
<defs>
<clipPath id="clip0_8_2">
<rect width="742.418" height="712.575" fill="white"/>
</clipPath>
</defs>
</svg>
