<svg width="438" height="778" viewBox="0 0 438 778" fill="none" xmlns="http://www.w3.org/2000/svg">
<g clip-path="url(#clip0_14_3)">
<g filter="url(#filter0_d_14_3)">
<path d="M416.247 390.766H21.123C15.5228 390.76 10.1537 388.532 6.19373 384.573C2.23376 380.613 0.00630197 375.243 0 369.643V242.905C0.00630197 237.305 2.23376 231.936 6.19373 227.976C10.1537 224.016 15.5228 221.789 21.123 221.782H416.247C421.847 221.789 427.216 224.016 431.176 227.976C435.136 231.936 437.364 237.305 437.37 242.905V369.643C437.364 375.243 435.136 380.613 431.176 384.573C427.216 388.532 421.847 390.76 416.247 390.766Z" fill="white"/>
</g>
<path d="M416.247 390.766H21.123C15.5228 390.76 10.1537 388.532 6.19373 384.573C2.23376 380.613 0.00630197 375.243 0 369.643V242.905C0.00630197 237.305 2.23376 231.936 6.19373 227.976C10.1537 224.016 15.5228 221.789 21.123 221.782H416.247C421.847 221.789 427.216 224.016 431.176 227.976C435.136 231.936 437.364 237.305 437.37 242.905V369.643C437.364 375.243 435.136 380.613 431.176 384.573C427.216 388.532 421.847 390.76 416.247 390.766V390.766ZM21.123 224.267C16.1816 224.273 11.4442 226.238 7.95016 229.733C4.45609 233.227 2.49065 237.964 2.48505 242.905V369.643C2.49065 374.585 4.45609 379.322 7.95016 382.816C11.4442 386.31 16.1816 388.276 21.123 388.281H416.247C421.188 388.276 425.926 386.31 429.42 382.816C432.914 379.322 434.879 374.585 434.885 369.643V242.905C434.879 237.964 432.914 233.227 429.42 229.733C425.926 226.238 421.188 224.273 416.247 224.267H21.123Z" fill="white"/>
<path d="M270.5 299.44H132.579C129.943 299.44 127.414 298.393 125.55 296.529C123.686 294.665 122.639 292.136 122.639 289.5C122.639 286.864 123.686 284.336 125.55 282.471C127.414 280.607 129.943 279.56 132.579 279.56H270.5C273.136 279.56 275.664 280.607 277.528 282.471C279.393 284.336 280.44 286.864 280.44 289.5C280.44 292.136 279.393 294.665 277.528 296.529C275.664 298.393 273.136 299.44 270.5 299.44V299.44Z" fill="url(#paint0_linear_14_3)"/>
<path d="M398.48 332.989H132.579C129.943 332.989 127.414 331.941 125.55 330.077C123.686 328.213 122.639 325.685 122.639 323.048C122.639 320.412 123.686 317.884 125.55 316.02C127.414 314.156 129.943 313.108 132.579 313.108H398.48C401.116 313.108 403.645 314.156 405.509 316.02C407.373 317.884 408.42 320.412 408.42 323.048C408.42 325.685 407.373 328.213 405.509 330.077C403.645 331.941 401.116 332.989 398.48 332.989Z" fill="url(#paint1_linear_14_3)"/>
<path d="M66.2258 343.55C86.8127 343.55 103.502 326.861 103.502 306.274C103.502 285.687 86.8127 268.999 66.2258 268.999C45.6389 268.999 28.95 285.687 28.95 306.274C28.95 326.861 45.6389 343.55 66.2258 343.55Z" fill="url(#paint2_linear_14_3)"/>
<path d="M398.465 373.371H363.675C361.038 373.371 358.51 372.324 356.646 370.46C354.782 368.595 353.734 366.067 353.734 363.431C353.734 360.794 354.782 358.266 356.646 356.402C358.51 354.538 361.038 353.49 363.675 353.49H398.465C399.771 353.49 401.063 353.748 402.269 354.247C403.475 354.747 404.571 355.479 405.494 356.402C406.417 357.325 407.149 358.421 407.649 359.627C408.149 360.833 408.406 362.125 408.406 363.431C408.406 364.736 408.149 366.029 407.649 367.235C407.149 368.441 406.417 369.536 405.494 370.46C404.571 371.383 403.475 372.115 402.269 372.614C401.063 373.114 399.771 373.371 398.465 373.371V373.371Z" fill="white"/>
<path d="M398.465 373.371H363.675C361.038 373.371 358.51 372.324 356.646 370.46C354.782 368.595 353.734 366.067 353.734 363.431C353.734 360.794 354.782 358.266 356.646 356.402C358.51 354.538 361.038 353.49 363.675 353.49H398.465C399.771 353.49 401.063 353.748 402.269 354.247C403.475 354.747 404.571 355.479 405.494 356.402C406.417 357.325 407.149 358.421 407.649 359.627C408.149 360.833 408.406 362.125 408.406 363.431C408.406 364.736 408.149 366.029 407.649 367.235C407.149 368.441 406.417 369.536 405.494 370.46C404.571 371.383 403.475 372.115 402.269 372.614C401.063 373.114 399.771 373.371 398.465 373.371V373.371Z" fill="black"/>
<path d="M257.517 464.472H180.772C179.305 464.472 177.898 463.889 176.861 462.852C175.824 461.814 175.241 460.407 175.241 458.941C175.241 457.474 175.824 456.067 176.861 455.029C177.898 453.992 179.305 453.409 180.772 453.409H257.517C258.982 453.411 260.387 453.995 261.423 455.032C262.459 456.069 263.04 457.475 263.04 458.941C263.04 460.406 262.459 461.812 261.423 462.849C260.387 463.886 258.982 464.47 257.517 464.472V464.472Z" fill="#E6E6E6"/>
<path d="M201.657 765.803H213.917L219.749 718.515L201.655 718.516L201.657 765.803Z" fill="#FFB8B8"/>
<path d="M198.53 761.801L222.673 761.8H222.674C224.695 761.8 226.696 762.198 228.562 762.971C230.429 763.744 232.125 764.877 233.554 766.306C234.983 767.735 236.116 769.431 236.89 771.298C237.663 773.165 238.061 775.165 238.061 777.186V777.686L198.53 777.687L198.53 761.801Z" fill="white"/>
<path d="M152.657 765.803H164.917L170.749 718.515L152.655 718.516L152.657 765.803Z" fill="#FFB8B8"/>
<path d="M149.53 761.801L173.673 761.8H173.674C175.695 761.8 177.696 762.198 179.562 762.971C181.429 763.744 183.125 764.877 184.554 766.306C185.983 767.735 187.116 769.431 187.89 771.298C188.663 773.165 189.061 775.165 189.061 777.186V777.686L149.53 777.687L149.53 761.801Z" fill="white"/>
<path d="M204.104 438.422C217.669 438.422 228.665 427.426 228.665 413.861C228.665 400.297 217.669 389.3 204.104 389.3C190.539 389.3 179.543 400.297 179.543 413.861C179.543 427.426 190.539 438.422 204.104 438.422Z" fill="#FFB8B8"/>
<path d="M220.62 755.597H197.87C197.274 755.597 196.685 755.479 196.135 755.249C195.586 755.02 195.087 754.683 194.669 754.26C194.25 753.836 193.92 753.333 193.697 752.781C193.474 752.229 193.363 751.638 193.37 751.042L194.692 643.011C194.697 642.628 194.555 642.257 194.294 641.975C194.034 641.693 193.675 641.521 193.292 641.496C192.91 641.47 192.531 641.592 192.236 641.837C191.94 642.081 191.75 642.43 191.703 642.811L178.462 751.641C178.329 752.732 177.801 753.736 176.978 754.465C176.155 755.194 175.094 755.596 173.995 755.597H151.026C150.406 755.597 149.792 755.469 149.223 755.22C148.655 754.972 148.144 754.608 147.722 754.153C147.301 753.697 146.979 753.159 146.775 752.573C146.571 751.987 146.491 751.365 146.54 750.747L161.707 556.671L162.12 556.626L234.749 548.783L225.116 751.311C225.062 752.467 224.565 753.557 223.727 754.355C222.89 755.154 221.777 755.598 220.62 755.597V755.597Z" fill="url(#paint3_linear_14_3)"/>
<path d="M256.462 389.037C256.848 389.434 257.265 389.799 257.708 390.13L255.13 439.657L244.406 445.147L250.577 462.415L270.506 454.54C272.117 453.904 273.477 452.762 274.383 451.287C275.289 449.812 275.692 448.083 275.532 446.359L270.311 390.18C272.02 388.905 273.3 387.141 273.981 385.121C274.662 383.101 274.712 380.921 274.124 378.872C273.536 376.823 272.339 375.002 270.69 373.65C269.042 372.298 267.022 371.48 264.897 371.305C262.773 371.13 260.645 371.605 258.798 372.669C256.95 373.732 255.47 375.333 254.555 377.258C253.639 379.183 253.331 381.341 253.672 383.445C254.013 385.549 254.986 387.5 256.463 389.037H256.462Z" fill="#FFB8B8"/>
<path d="M255.334 441.5L262.878 462.939C263.093 463.549 263.173 464.198 263.114 464.842C263.056 465.486 262.859 466.11 262.537 466.671C262.215 467.232 261.777 467.717 261.251 468.093C260.725 468.469 260.124 468.728 259.489 468.851L237.244 473.158C234.116 474.239 230.688 474.036 227.71 472.593C224.733 471.15 222.449 468.585 221.36 465.46C220.271 462.336 220.465 458.907 221.9 455.926C223.336 452.945 225.894 450.654 229.016 449.557L248.99 439.014C249.562 438.712 250.192 438.537 250.837 438.501C251.483 438.465 252.129 438.568 252.731 438.804C253.333 439.04 253.877 439.403 254.326 439.868C254.776 440.334 255.119 440.89 255.334 441.5V441.5Z" fill="white"/>
<path d="M150.076 389.037C149.69 389.434 149.273 389.799 148.83 390.13L151.408 439.657L162.133 445.147L155.962 462.415L136.032 454.54C134.422 453.904 133.062 452.762 132.156 451.287C131.249 449.812 130.846 448.083 131.006 446.359L136.227 390.18C134.519 388.905 133.239 387.141 132.558 385.121C131.877 383.101 131.827 380.921 132.414 378.872C133.002 376.823 134.2 375.002 135.848 373.65C137.496 372.298 139.517 371.48 141.641 371.305C143.766 371.13 145.893 371.605 147.741 372.669C149.588 373.732 151.068 375.333 151.984 377.258C152.9 379.182 153.208 381.341 152.867 383.445C152.526 385.549 151.553 387.5 150.076 389.037V389.037Z" fill="#FFB8B8"/>
<path d="M153.808 438.804C154.41 438.568 155.056 438.464 155.701 438.5C156.347 438.537 156.977 438.712 157.549 439.014L177.523 449.557C180.644 450.654 183.203 452.945 184.638 455.926C186.073 458.907 186.268 462.336 185.179 465.46C184.089 468.585 181.806 471.15 178.828 472.593C175.851 474.036 172.422 474.239 169.295 473.158L147.05 468.851C146.415 468.728 145.814 468.469 145.288 468.093C144.762 467.717 144.323 467.232 144.002 466.671C143.68 466.11 143.483 465.486 143.424 464.842C143.365 464.198 143.446 463.549 143.661 462.939L151.205 441.5C151.419 440.89 151.763 440.333 152.212 439.868C152.661 439.403 153.206 439.04 153.808 438.804Z" fill="white"/>
<path d="M162.591 568.585C161.424 568.583 160.304 568.127 159.468 567.313C158.631 566.5 158.143 565.393 158.107 564.227C157.711 551.956 157.031 509.495 164.929 478.322C167.085 469.806 171.923 462.21 178.729 456.656C185.535 451.103 193.947 447.886 202.722 447.483V447.483C211.359 447.011 219.925 449.271 227.205 453.942C234.486 458.614 240.11 465.459 243.281 473.506C256.556 507.209 269.098 548.752 253.462 555.268C232.967 563.807 178.938 567.614 162.867 568.577C162.775 568.583 162.683 568.585 162.591 568.585Z" fill="white"/>
<path d="M213.643 418.048C213.514 414.915 214.3 411.812 215.906 409.118C217.511 406.425 219.866 404.257 222.684 402.88C230.15 399.026 234.84 390.805 232.784 383.298C230.154 373.689 217.076 367.457 206.479 370.763C203.612 371.781 200.846 373.067 198.218 374.603L191.295 378.314C188.338 379.794 185.486 381.477 182.761 383.351C178.68 386.359 175.48 390.408 173.498 395.075C171.515 399.742 170.822 404.855 171.491 409.881C172.854 419.65 179.252 428.609 188.009 434.742C191.358 437.245 195.226 438.965 199.328 439.774C203.525 440.466 208.198 439.679 211.267 437.069C216.063 432.989 215.568 426.158 214.016 420.452C213.811 419.665 213.686 418.86 213.643 418.048V418.048Z" fill="url(#paint4_linear_14_3)"/>
</g>
<defs>
<filter id="filter0_d_14_3" x="-8" y="221.782" width="453.37" height="188.984" filterUnits="userSpaceOnUse" color-interpolation-filters="sRGB">
<feFlood flood-opacity="0" result="BackgroundImageFix"/>
<feColorMatrix in="SourceAlpha" type="matrix" values="0 0 0 0 0 0 0 0 0 0 0 0 0 0 0 0 0 0 127 0" result="hardAlpha"/>
<feOffset dy="12"/>
<feGaussianBlur stdDeviation="4"/>
<feComposite in2="hardAlpha" operator="out"/>
<feColorMatrix type="matrix" values="0 0 0 0 0 0 0 0 0 0 0 0 0 0 0 0 0 0 0.16 0"/>
<feBlend mode="normal" in2="BackgroundImageFix" result="effect1_dropShadow_14_3"/>
<feBlend mode="normal" in="SourceGraphic" in2="effect1_dropShadow_14_3" result="shape"/>
</filter>
<linearGradient id="paint0_linear_14_3" x1="132.5" y1="290" x2="273.5" y2="290" gradientUnits="userSpaceOnUse">
<stop stop-color="#EF5B5B"/>
<stop offset="1" stop-color="#FFBA49"/>
</linearGradient>
<linearGradient id="paint1_linear_14_3" x1="138" y1="323" x2="401" y2="323" gradientUnits="userSpaceOnUse">
<stop stop-color="#EF5B5B"/>
<stop offset="1" stop-color="#FFBA49"/>
</linearGradient>
<linearGradient id="paint2_linear_14_3" x1="66.2258" y1="268.999" x2="66.2258" y2="343.55" gradientUnits="userSpaceOnUse">
<stop stop-color="#EF5B5B"/>
<stop offset="1" stop-color="#FFBA49"/>
</linearGradient>
<linearGradient id="paint3_linear_14_3" x1="190.637" y1="548.783" x2="190.637" y2="755.597" gradientUnits="userSpaceOnUse">
<stop/>
<stop offset="0.0815352" stop-color="#FFBA49"/>
<stop offset="0.9998" stop-color="#EF5B5B"/>
<stop offset="0.9999" stop-color="#FFBA49" stop-opacity="0.01"/>
</linearGradient>
<linearGradient id="paint4_linear_14_3" x1="202.256" y1="369.869" x2="202.256" y2="440.012" gradientUnits="userSpaceOnUse">
<stop stop-color="#FFBA49"/>
<stop offset="1" stop-color="#EF5B5B"/>
</linearGradient>
<clipPath id="clip0_14_3">
<rect width="437.37" height="777.687" fill="white"/>
</clipPath>
</defs>
</svg>
