<svg width="723" height="494" viewBox="0 0 723 494" fill="none" xmlns="http://www.w3.org/2000/svg">
<g clip-path="url(#clip0_5_2)">
<path d="M251.111 473.199C250.536 473.226 249.967 473.075 249.481 472.767C248.994 472.459 248.614 472.009 248.392 471.478C248.17 470.947 248.117 470.36 248.239 469.798C248.362 469.235 248.654 468.724 249.077 468.333L249.269 467.568C249.244 467.507 249.218 467.446 249.192 467.385C248.613 466.017 247.643 464.85 246.402 464.032C245.162 463.213 243.708 462.78 242.222 462.785C240.736 462.791 239.285 463.235 238.051 464.063C236.817 464.89 235.855 466.064 235.286 467.437C233.011 472.915 230.115 478.402 229.402 484.194C229.088 486.755 229.221 489.35 229.794 491.865C224.452 480.212 221.678 467.546 221.66 454.726C221.659 451.509 221.837 448.295 222.195 445.098C222.491 442.477 222.901 439.875 223.426 437.291C226.289 423.273 232.437 410.135 241.364 398.954C245.684 396.597 249.179 392.971 251.376 388.567C252.171 386.983 252.734 385.293 253.046 383.549C252.558 383.613 251.208 376.19 251.575 375.734C250.896 374.704 249.68 374.191 248.939 373.185C245.249 368.183 240.166 369.057 237.512 375.854C231.844 378.715 231.789 383.46 235.267 388.023C237.48 390.927 237.784 394.855 239.726 397.963C239.526 398.219 239.318 398.467 239.118 398.722C235.467 403.418 232.284 408.46 229.616 413.776C230.265 407.82 229.491 401.796 227.357 396.197C225.194 390.98 221.141 386.586 217.571 382.076C213.283 376.658 204.49 379.023 203.735 385.89C203.728 385.957 203.721 386.023 203.714 386.09C204.244 386.389 204.763 386.706 205.271 387.042C205.909 387.468 206.403 388.077 206.689 388.789C206.975 389.501 207.039 390.283 206.873 391.032C206.707 391.781 206.319 392.463 205.759 392.987C205.199 393.512 204.494 393.855 203.735 393.972L203.658 393.984C203.847 395.895 204.181 397.789 204.657 399.649C200.077 417.359 209.964 423.81 224.081 424.099C224.392 424.259 224.696 424.419 225.008 424.571C222.327 432.167 220.646 440.08 220.006 448.11C219.644 452.848 219.665 457.607 220.07 462.341L220.046 462.173C219.023 456.909 216.215 452.159 212.095 448.725C205.977 443.7 197.333 441.849 190.733 437.809C190.031 437.359 189.216 437.118 188.382 437.116C187.549 437.114 186.732 437.351 186.028 437.797C185.324 438.244 184.763 438.883 184.411 439.639C184.058 440.394 183.929 441.235 184.039 442.061C184.047 442.12 184.056 442.179 184.066 442.237C185.05 442.638 186.008 443.1 186.934 443.62C187.464 443.919 187.983 444.236 188.491 444.572C189.129 444.998 189.623 445.607 189.909 446.319C190.195 447.031 190.259 447.813 190.093 448.562C189.928 449.311 189.539 449.993 188.979 450.517C188.419 451.042 187.714 451.385 186.956 451.502L186.878 451.514C186.822 451.522 186.774 451.53 186.718 451.538C188.4 455.552 190.759 459.247 193.694 462.461C196.557 477.921 208.856 479.388 222.011 474.886H222.019C223.463 481.158 225.554 487.263 228.26 493.103H250.553C250.633 492.856 250.704 492.6 250.776 492.352C248.713 492.482 246.641 492.359 244.608 491.985C246.262 489.955 247.916 487.91 249.57 485.88C249.607 485.842 249.641 485.802 249.674 485.76C250.513 484.722 251.36 483.691 252.199 482.652L252.199 482.651C252.244 479.467 251.878 476.29 251.112 473.2L251.111 473.199Z" fill="white"/>
<path d="M79.6421 439.481L85.7931 445.982L114.354 424.822L105.276 415.227L79.6421 439.481Z" fill="#A0616A"/>
<path d="M89.7216 443.077L82.7581 436.536L81.0481 434.933L63.3201 449.107L67.9316 453.981L73.3598 450.5L70.8661 457.083L83.0929 470.005C83.6787 470.625 84.4473 471.042 85.2865 471.194C86.1257 471.346 86.9916 471.226 87.7577 470.851C88.5238 470.476 89.15 469.866 89.5451 469.111C89.9401 468.355 90.0832 467.492 89.9535 466.649L87.3148 449.578L91.9647 445.18L89.7216 443.077Z" fill="white"/>
<path d="M214.824 202.78L212.874 224.07C212.874 224.07 209.47 240.11 211.827 238.81C214.184 237.51 209.958 243.361 211.071 248.435C212.184 253.51 201.564 291.35 206.374 287.43C211.184 283.51 203.594 310.59 198.794 323.95C197.324 328.08 195.814 332.26 194.294 336.41C193.994 337.25 193.694 338.08 193.384 338.92C191.414 344.32 189.444 349.64 187.554 354.66C187.284 355.36 187.024 356.06 186.764 356.75C186.754 356.77 186.754 356.79 186.744 356.79C180.524 373.16 175.194 386.04 173.064 388.17C171.954 389.28 154.344 402 136.594 414.74C117.964 428.11 99.184 441.51 99.184 441.51L81.644 423.11C81.644 423.11 82.064 422.99 82.854 422.75C84.314 422.33 87.0142 421.54 90.5542 420.49C105.314 416.14 86.564 409.37 99.9644 404.53C103.744 403.17 106.264 402.11 106.834 401.55C110.164 398.3 114.634 390.55 116.744 393.8C118.854 397.05 128.424 372.9 131.184 370.51C132.664 369.22 137.494 363.19 141.634 357.89C145.194 353.33 148.254 349.3 148.254 349.3C148.254 349.3 148.314 347.14 148.404 343.7C148.534 338.61 148.724 330.7 148.924 322.78C148.914 322.77 148.914 322.77 148.924 322.77C148.994 319.79 149.064 316.809 149.134 313.979C149.184 311.79 149.234 309.68 149.284 307.729C149.414 301.89 149.504 297.47 149.504 296.37C149.504 292.76 149.504 295.57 152.354 293.39C152.78 293.055 153.184 292.695 153.564 292.31C154.173 291.761 154.735 291.162 155.244 290.52C155.454 290.07 154.144 290.68 152.444 290.34C151.523 290.155 150.672 289.719 149.984 289.08C146.404 285.86 150.264 275.96 150.264 275.96C142.124 259.68 142.714 246.33 146.524 236.04C149.373 228.655 153.895 222.032 159.734 216.69C161.956 214.572 164.378 212.673 166.964 211.02L167.214 209.67L169.964 194.78C171.427 193.976 172.948 193.285 174.514 192.71C179.399 190.957 184.64 190.435 189.774 191.19C194.877 191.928 199.817 193.528 204.384 195.92C208.118 197.796 211.621 200.098 214.824 202.78Z" fill="#EF5B5B"/>
<path d="M138.02 472.651L146.931 473.48L154.44 438.736L141.287 437.513L138.02 472.651Z" fill="#A0616A"/>
<path d="M163.684 486.27L150.444 475.18L151.044 468.8L147.964 468.7L138.424 468.39H138.414L136.074 468.31L132.104 490.65L138.794 491.27L140.564 485.07L143.034 491.67L146.574 492L160.744 493.32C160.864 493.33 160.994 493.34 161.114 493.34C161.678 493.341 162.235 493.221 162.748 492.99C163.262 492.759 163.721 492.422 164.094 492C164.674 491.365 165.029 490.556 165.104 489.7C165.163 489.056 165.064 488.407 164.817 487.81C164.569 487.212 164.181 486.684 163.684 486.27Z" fill="white"/>
<path d="M187.554 354.66C184.164 373.11 169.814 416.37 161.134 441.69C157.184 453.26 154.424 461.09 154.424 461.09L149.924 459.67H149.914L142.304 457.27L139.534 456.39H139.524L136.164 455.32C136.164 455.32 136.554 434.66 136.594 414.74C136.624 406.39 136.584 398.16 136.424 391.64C136.244 384.53 135.934 379.44 135.424 378.43C133.314 374.289 136.844 373.85 140.574 372.81C144.314 371.76 141.394 370.18 139.944 366.82C138.964 364.58 140.894 361.59 142.264 359.89C142.642 359.411 143.046 358.954 143.474 358.519C143.474 358.519 142.814 358.289 141.634 357.89C145.194 353.33 148.254 349.3 148.254 349.3C148.254 349.3 148.314 347.14 148.404 343.7C148.534 338.61 148.724 330.7 148.924 322.78C148.914 322.769 148.914 322.769 148.924 322.769C148.994 319.789 149.064 316.809 149.134 313.979C154.854 318.37 160.414 322.67 165.454 326.65C165.46 326.655 165.465 326.661 165.469 326.668C165.472 326.675 165.474 326.682 165.474 326.69C177.584 336.26 186.674 343.94 187.954 346.38C188.534 347.479 188.334 350.42 187.554 354.66Z" fill="#EF5B5B"/>
<path d="M485.683 28.8927C487.35 28.7368 489.012 29.2375 490.315 30.2883C491.619 31.3392 492.461 32.8572 492.662 34.5193C492.698 34.8578 492.705 35.1987 492.684 35.5384L513.306 44.3447L512.519 56.3808L485.574 41.2631C484.172 41.0685 482.874 40.4152 481.882 39.4051C480.89 38.395 480.261 37.085 480.092 35.6796C480.003 34.8789 480.073 34.0687 480.298 33.2951C480.523 32.5215 480.897 31.7998 481.401 31.1711C481.905 30.5424 482.527 30.019 483.233 29.6308C483.939 29.2427 484.714 28.9974 485.515 28.9089C485.571 28.9027 485.627 28.8973 485.683 28.8927Z" fill="#FFB6B6"/>
<path d="M625.984 103.19C625.475 100.857 624.528 98.6406 623.194 96.6597C622.823 96.096 622.419 95.555 621.984 95.0396C620.364 93.1099 618.854 91.3399 617.454 89.7598C616.604 88.7696 615.774 87.8497 614.994 87C610.464 82.0298 607.494 79.4 606.134 79.1797C605.474 79.0699 604.824 78.9898 604.194 78.9097C600.964 78.5098 598.624 78.2198 598.554 74.8096C598.547 74.321 598.58 73.8327 598.654 73.3496C598.775 72.5384 598.952 71.7366 599.184 70.9497C599.317 70.5037 599.421 70.0495 599.494 69.5899C599.594 69 599.554 68.5596 599.234 68.2896C598.834 67.96 598.164 68.0098 596.904 68.5098C596.704 68.5899 596.474 68.6797 596.234 68.7896C596.154 68.8198 596.074 68.8599 595.984 68.8999C595.824 68.9697 595.644 69.0498 595.464 69.1397C593.954 69.8599 591.624 69.9497 588.964 69.6797C581.114 68.8799 570.494 64.9199 570.364 64.8696L503.484 38.8799L502.864 39.8799L501.394 42.2598L500.884 43.0796L500.304 44.0195L497.774 48.0996L496.494 50.1597L518.094 66.4497L520.444 68.2197L522.464 69.7499L563.704 100.86L579.084 111.01L582.514 113.269L597.134 122.91C599.236 124.298 601.594 125.251 604.07 125.714C606.545 126.176 609.089 126.137 611.55 125.6C614.01 125.063 616.339 124.039 618.397 122.588C620.455 121.136 622.202 119.287 623.534 117.15C626.13 112.99 627.008 107.985 625.984 103.19Z" fill="#EF5B5B"/>
<path d="M721.73 493.998H1C0.734784 493.998 0.480429 493.893 0.292892 493.705C0.105356 493.518 0 493.263 0 492.998C0 492.733 0.105356 492.478 0.292892 492.291C0.480429 492.103 0.734784 491.998 1 491.998H721.73C721.996 491.998 722.25 492.103 722.438 492.291C722.625 492.478 722.73 492.733 722.73 492.998C722.73 493.263 722.625 493.518 722.438 493.705C722.25 493.893 721.996 493.998 721.73 493.998Z" fill="black"/>
<path d="M164.915 166.791L166.789 184.173L165.687 206.965L216.172 200.968L220.915 166.791L214.871 166.851L164.915 166.791Z" fill="#FFB6B6"/>
<path d="M207.858 110.649L188.858 95.6492L178.884 95.0693L164.085 104.55L160.461 123.037L151.891 143.856L164.461 200.037C164.461 200.037 165.64 204.069 162.551 204.553C159.461 205.038 159.832 210.98 159.832 210.98C159.832 210.98 160.461 216.13 157.461 216.584C154.461 217.037 146.461 217.037 153.461 226.037C160.461 235.037 215.827 200.998 215.827 200.998L223.869 158.804C223.869 158.804 239.464 137.858 222.669 125.861L207.858 110.649Z" fill="white"/>
<path d="M124.914 238.208C124.077 237.163 123.479 235.948 123.162 234.647C122.846 233.346 122.818 231.992 123.082 230.679C123.345 229.367 123.893 228.128 124.687 227.05C125.481 225.972 126.502 225.081 127.677 224.441L151.577 144.236L166.52 151.759L140.494 228.635C141.439 230.681 141.601 233.003 140.949 235.16C140.297 237.318 138.876 239.161 136.956 240.341C135.036 241.521 132.749 241.956 130.53 241.563C128.31 241.169 126.312 239.976 124.914 238.208Z" fill="#A0616A"/>
<path d="M167.517 103.808C167.517 103.808 163.245 101.538 160.323 111.362C157.984 119.227 139.003 166.075 138.761 177.465C137.199 177.796 135.791 178.637 134.76 179.856C133.728 181.075 133.132 182.603 133.064 184.198L156.533 187.343C160.634 183.884 161.71 179.213 160.123 177.826L165.219 163.909L186.477 119.63L170.634 105.394L167.517 103.808Z" fill="white"/>
<path d="M292.918 211.844C293.221 210.54 293.235 209.186 292.958 207.876C292.681 206.566 292.12 205.333 291.315 204.264C290.509 203.194 289.48 202.314 288.298 201.686C287.115 201.057 285.81 200.695 284.473 200.626L229.649 138.013L218.02 151.89L274.731 209.95C274.763 212.204 275.621 214.368 277.142 216.031C278.663 217.694 280.741 218.742 282.983 218.976C285.225 219.209 287.475 218.612 289.306 217.298C291.137 215.984 292.422 214.043 292.918 211.844H292.918Z" fill="#A0616A"/>
<path d="M196.385 109.085C196.385 109.085 199.255 105.19 206.138 112.785C211.648 118.865 249.022 152.898 254.166 163.063C255.717 162.686 257.35 162.836 258.807 163.489C260.264 164.142 261.463 165.262 262.213 166.671L242.413 179.655C237.219 178.31 234.229 174.563 235.06 172.627L224.447 162.282L186.131 131.55L194.26 111.863L196.385 109.085Z" fill="white"/>
<path d="M400.827 280.998C478.147 280.998 540.827 218.318 540.827 140.998C540.827 63.6781 478.147 0.997925 400.827 0.997925C323.507 0.997925 260.827 63.6781 260.827 140.998C260.827 218.318 323.507 280.998 400.827 280.998Z" fill="#EF5B5B"/>
<path opacity="0.2" d="M394.205 190.548C387.791 196.961 379.093 200.564 370.022 200.564C360.952 200.564 352.254 196.961 345.84 190.548V190.547C340.329 185.034 336.866 177.803 336.026 170.053C335.185 162.303 337.017 154.498 341.219 147.931L333.695 155.607C327.281 162.02 323.678 170.719 323.678 179.789C323.678 188.859 327.281 197.558 333.695 203.971V203.971C340.108 210.385 348.807 213.988 357.877 213.988C366.947 213.988 375.646 210.385 382.059 203.971L398.733 186.659L398.986 185.583L394.205 190.548Z" fill="black"/>
<path opacity="0.2" d="M410.088 83.5908C417.584 78.485 426.802 76.5664 435.713 78.2569C444.624 79.9474 452.499 85.1087 457.605 92.6052V92.6053C461.992 99.0494 464.046 106.799 463.427 114.57C462.809 122.341 459.554 129.668 454.202 135.337L463.025 129.197C470.521 124.092 475.682 116.217 477.373 107.306C479.064 98.3945 477.145 89.1768 472.039 81.6803V81.6802C466.933 74.1837 459.059 69.0225 450.148 67.332C441.236 65.6414 432.019 67.5601 424.522 72.6658L404.914 86.5674L404.464 87.5775L410.088 83.5908Z" fill="black"/>
<path d="M357.877 218.266C350.52 218.267 343.328 216.085 337.21 211.997C331.093 207.91 326.325 202.1 323.51 195.303C320.694 188.506 319.957 181.026 321.393 173.81C322.828 166.595 326.371 159.966 331.574 154.764L363.142 122.556C366.595 119.098 370.696 116.353 375.21 114.48C379.725 112.607 384.564 111.642 389.451 111.64C394.339 111.638 399.179 112.599 403.695 114.469C408.211 116.338 412.314 119.079 415.77 122.535C416.332 123.098 416.648 123.861 416.648 124.657C416.648 125.452 416.332 126.215 415.77 126.778C415.207 127.34 414.444 127.656 413.649 127.656C412.853 127.656 412.09 127.34 411.528 126.778C405.677 120.927 397.741 117.64 389.467 117.64C381.192 117.64 373.257 120.927 367.406 126.778C362.769 143.124 352.751 154.34 335.837 158.985C332.935 161.88 330.632 165.319 329.06 169.104C327.487 172.89 326.676 176.948 326.673 181.047C326.669 185.146 327.474 189.205 329.04 192.993C330.606 196.781 332.903 200.224 335.8 203.124C338.697 206.024 342.137 208.324 345.924 209.894C349.71 211.464 353.769 212.272 357.868 212.272C361.967 212.273 366.026 211.466 369.813 209.897C373.6 208.328 377.041 206.028 379.938 203.129C379.255 196.423 381.214 190.119 396.572 185.856C396.845 185.571 397.172 185.343 397.533 185.184C397.894 185.026 398.284 184.94 398.678 184.932C399.073 184.924 399.465 184.994 399.832 185.138C400.2 185.282 400.535 185.497 400.82 185.771C401.104 186.045 401.331 186.372 401.489 186.734C401.646 187.095 401.731 187.485 401.738 187.879C401.745 188.274 401.674 188.666 401.529 189.033C401.384 189.4 401.168 189.735 400.893 190.018L384.22 207.331C380.772 210.807 376.667 213.563 372.145 215.44C367.623 217.317 362.773 218.278 357.877 218.266Z" fill="white"/>
<path d="M409.129 172.704C404.242 172.717 399.4 171.761 394.885 169.891C390.37 168.02 386.271 165.273 382.825 161.808C382.262 161.245 381.946 160.482 381.947 159.686C381.947 158.891 382.263 158.128 382.826 157.565C383.388 157.003 384.151 156.687 384.947 156.687C385.743 156.687 386.506 157.003 387.068 157.566C389.965 160.463 393.404 162.761 397.19 164.329C400.975 165.897 405.032 166.704 409.129 166.704C413.226 166.704 417.283 165.897 421.068 164.329C424.853 162.761 428.293 160.463 431.19 157.566C435.188 133.481 451.488 130.082 465.656 123.1C468.553 120.203 470.851 116.764 472.419 112.978C473.987 109.193 474.794 105.136 474.794 101.039C474.794 96.9417 473.987 92.8846 472.419 89.0994C470.851 85.3141 468.553 81.8748 465.656 78.9777C462.759 76.0806 459.32 73.7825 455.534 72.2146C451.749 70.6467 447.692 69.8398 443.595 69.8398C439.498 69.8398 435.441 70.6468 431.655 72.2148C427.87 73.7827 424.431 76.0808 421.534 78.9779C417.592 90.349 413.723 101.854 401.984 98.5277C401.705 98.8063 401.375 99.0272 401.011 99.178C400.647 99.3288 400.257 99.4064 399.863 99.4064C399.067 99.4064 398.304 99.0904 397.742 98.5278C397.179 97.9652 396.863 97.2022 396.863 96.4066C396.863 95.6111 397.179 94.848 397.742 94.2855L417.291 74.7357C420.746 71.2814 424.846 68.5414 429.359 66.672C433.873 64.8025 438.71 63.8404 443.595 63.8403C448.48 63.8403 453.317 64.8025 457.83 66.6718C462.343 68.5412 466.444 71.2813 469.898 74.7354C473.352 78.1896 476.092 82.2904 477.962 86.8035C479.831 91.3166 480.793 96.1538 480.793 101.039C480.793 105.924 479.831 110.761 477.962 115.274C476.092 119.787 473.352 123.888 469.898 127.342L435.432 161.808C431.986 165.274 427.887 168.021 423.372 169.891C418.857 171.761 414.016 172.717 409.129 172.704Z" fill="white"/>
<path d="M522.464 69.75C516.585 59.7641 509.509 50.5326 501.394 42.2597C499.584 40.4199 497.714 38.6196 495.804 36.8696C494.744 35.8999 493.674 34.9497 492.584 34.0195C490.514 32.2397 488.384 30.5195 486.214 28.8598C461.701 10.1088 431.687 -0.0349183 400.824 -3.23874e-05C323.084 -3.23874e-05 259.824 63.25 259.824 141C259.821 149.573 260.6 158.128 262.154 166.56C262.156 166.607 262.163 166.654 262.174 166.7C262.884 170.57 263.764 174.39 264.784 178.14C272.01 204.608 286.801 228.394 307.346 246.58C327.89 264.766 353.295 276.562 380.444 280.523C407.594 284.484 435.31 280.437 460.194 268.878C485.077 257.319 506.048 238.751 520.534 215.45C522.484 212.31 524.317 209.089 526.034 205.79C536.984 184.66 542.4 161.1 541.776 137.31C541.152 113.52 534.508 90.2761 522.464 69.75ZM400.824 280C382.569 280.006 364.491 276.415 347.624 269.432C330.757 262.449 315.431 252.21 302.522 239.302C289.614 226.393 279.375 211.067 272.392 194.2C265.409 177.333 261.818 159.255 261.824 141C261.824 64.3496 324.184 1.99997 400.824 1.99997C419.371 2.01048 437.728 5.73378 454.813 12.9504C471.898 20.1671 487.366 30.731 500.304 44.0195C503.679 47.4641 506.863 51.0896 509.844 54.8799C512.796 58.5888 515.549 62.4507 518.094 66.4497C528.703 83.1148 535.635 101.851 538.428 121.407C541.222 140.964 539.812 160.891 534.294 179.86C533.064 184.1 531.624 188.25 530.004 192.32C528.374 196.4 526.564 200.4 524.564 204.28C512.868 227.037 495.138 246.139 473.313 259.494C451.489 272.849 426.411 279.943 400.824 280Z" fill="#EF5B5B"/>
<path d="M592.636 472.969L583.445 472.891L579.376 436.612L592.942 436.727L592.636 472.969Z" fill="#FFB6B6"/>
<path d="M595.074 468.73L592.674 468.57L582.884 467.9L579.734 467.69L579.674 474.26L564.994 484.22C564.269 484.712 563.721 485.424 563.429 486.25C563.136 487.077 563.116 487.975 563.371 488.813C563.626 489.652 564.142 490.388 564.844 490.912C565.546 491.437 566.398 491.723 567.274 491.73L585.544 491.88L588.744 485.4L589.914 491.92L596.814 491.979L595.074 468.73Z" fill="white"/>
<path d="M689.407 466.253L680.622 468.954L665.792 435.596L678.759 431.61L689.407 466.253Z" fill="#FFB6B6"/>
<path d="M690.454 461.479L688.114 462.05L678.585 464.36L675.514 465.11L677.444 471.4L666.454 485.32C665.977 485.927 665.68 486.655 665.597 487.423C665.515 488.19 665.65 488.965 665.986 489.66C666.323 490.354 666.849 490.94 667.502 491.35C668.156 491.76 668.912 491.978 669.684 491.979C670.091 491.979 670.495 491.918 670.884 491.8L688.354 486.43L689.444 479.28L692.534 485.14L699.125 483.11L690.454 461.479Z" fill="white"/>
<path d="M574.149 167.916L556.608 218.89L556.029 222.969C551.61 227.165 557.162 228.547 555.08 229.654C552.998 230.761 551.598 233.863 554.403 234.417C557.209 234.972 566.254 433.79 578.184 441.51C590.115 449.23 597.375 454.813 595.184 443.51C594.301 438.956 595.55 414.538 597.356 387.002C597.561 383.881 600.794 380.578 597.989 377.544C595.184 374.51 598.335 372.513 598.511 369.995C601.028 334.038 603.933 298.539 603.933 298.539C603.933 298.539 622.527 362.397 627.356 357.453C632.184 352.51 630.273 364.681 631.748 368.318C632.981 371.357 627.721 377.327 635.452 377.418C643.184 377.51 661.342 439.58 663.184 439.51C666.834 439.371 677.092 439.764 683.184 438.51C686.193 437.891 672.839 390.897 661.688 350.317C660.799 347.081 655.959 347.006 659.072 340.758C662.184 334.51 646.697 294.084 648.026 292.214C651.554 287.251 652.897 285.094 649.418 284.769C645.939 284.444 644.911 286.352 644.724 281.538C644.536 276.724 643.935 264.853 643.935 264.853C643.935 264.853 641.415 217.904 623.769 191.966L622.264 176.554L574.149 167.916Z" fill="#EF5B5B"/>
<path d="M617.969 70.5939L594.708 73.9059L593.305 90.7489L581.826 108.704C581.826 108.704 556.312 126.659 574.106 155.022C567.335 179.456 560.602 202.888 554.184 218.51C549.184 249.51 593.977 252.481 645.184 241.51C645.184 241.51 644.478 228.255 639.831 221.882C635.184 215.51 637.714 214.118 637.714 214.118L634.467 202.213C636.304 185.005 630.1 183.46 627.184 175.51L636.037 93.0153L617.969 70.5939Z" fill="#EF5B5B"/>
<path d="M506.305 214.786C506.551 213.13 507.434 211.635 508.766 210.62C510.097 209.605 511.773 209.15 513.435 209.351C513.772 209.397 514.105 209.471 514.43 209.572L527.904 191.648L539.404 195.285L518.292 217.843C517.768 219.159 516.824 220.263 515.606 220.985C514.389 221.707 512.966 222.006 511.561 221.835C510.762 221.73 509.992 221.468 509.295 221.065C508.597 220.662 507.986 220.126 507.495 219.487C507.005 218.848 506.645 218.119 506.437 217.341C506.229 216.562 506.175 215.751 506.281 214.952C506.288 214.897 506.296 214.841 506.305 214.786Z" fill="#FFB6B6"/>
<path d="M625.984 103.19C625.654 102.78 625.294 102.38 624.914 101.99C622.273 99.2677 618.871 97.4065 615.154 96.65C611.438 95.8935 607.579 96.2769 604.084 97.75C603.744 97.8897 603.404 98.0498 603.074 98.21C591.124 104.08 584.674 107.99 583.894 109.82C583.624 110.44 583.394 111.05 583.164 111.64C582.944 112.22 582.734 112.77 582.514 113.27C581.594 115.41 580.534 116.74 577.834 116.14C576.939 115.921 576.075 115.588 575.264 115.15C574.894 114.97 574.554 114.78 574.234 114.6C573.074 113.96 572.234 113.5 571.664 113.92C571.114 114.33 571.094 115.37 571.594 117.78C571.76 118.786 571.732 119.814 571.514 120.81C570.853 123.715 569.818 126.521 568.434 129.16C566.361 133.296 564.03 137.297 561.454 141.14L537.664 175.06L536.054 177.35L534.294 179.86L520.254 199.88L521.084 200.73L524.564 204.28L525.334 205.07L526.034 205.79L527.844 207.64L529.544 209.37L567.474 178.47L571.704 175.02L579.284 168.84L594.814 156.19L624.204 128.99C626.059 127.287 627.551 125.226 628.591 122.932C629.631 120.638 630.196 118.158 630.254 115.64C630.254 115.47 630.264 115.31 630.264 115.14C630.275 110.779 628.761 106.552 625.984 103.19Z" fill="#EF5B5B"/>
<path d="M604.004 69.9809C618.359 69.9809 629.996 58.3439 629.996 43.989C629.996 29.6341 618.359 17.9972 604.004 17.9972C589.65 17.9972 578.013 29.6341 578.013 43.989C578.013 58.3439 589.65 69.9809 604.004 69.9809Z" fill="#FFB6B6"/>
<path d="M638.449 80.0304C641.938 85.0229 644.271 90.7292 645.28 96.7354C642.469 98.5339 639.197 99.4785 635.859 99.4548C635.746 99.0178 635.633 98.5807 635.503 98.1437C634.536 94.7594 633.098 91.5281 631.23 88.5448C631.486 91.7617 631.05 94.9961 629.951 98.0304C628.188 97.229 626.298 96.7414 624.367 96.5898C622.793 96.5896 621.242 96.9554 619.834 97.6581C618.199 92.2354 616.694 87.2498 615.626 83.6725C615.593 92.6401 602.449 100.458 588.108 99.3254C587.59 99.0016 592.786 84.2552 592.284 83.9153C591.135 83.1545 590.018 82.329 588.901 81.5197C593.595 74.2678 598.694 66.4981 597.82 65.3326C597.885 66.7733 592.737 73.7013 587.137 80.2408C584.029 77.9585 601.689 40.8255 592.964 37.8147C592.818 39.1259 590.892 39.1259 588.545 38.8507C587.926 36.6874 587.005 34.622 585.809 32.7157C585.965 34.636 585.734 36.568 585.129 38.3974C582.812 38.398 580.5 38.6422 578.234 39.1258C577.709 38.3006 577.131 37.5111 576.502 36.7625C576.564 37.6748 576.537 38.591 576.421 39.4981C574.106 39.9999 572.196 40.5826 571.921 41.0521C570.108 40.3884 573.2 37.3938 572.067 35.8398C569.185 31.955 573.459 26.2895 576.162 22.2751C581.714 14.0521 593.903 11.2032 602.53 16.1402C602.919 14.7967 604.91 13.9064 607.468 13.3075C608.551 13.0686 609.66 12.9653 610.77 12.9999C621.777 13.1942 637.057 22.2751 637.656 33.2661C637.705 34.3668 637.786 35.5647 637.867 36.8434C638.644 49.1456 637.689 60.4927 646.09 69.4927C649.133 72.7462 649.165 88.1563 648 96.088C644.973 92.8991 642.82 80.4999 638.449 80.0304Z" fill="#EF5B5B"/>
<path d="M352.184 144.51C353.841 144.51 355.184 143.167 355.184 141.51C355.184 139.853 353.841 138.51 352.184 138.51C350.527 138.51 349.184 139.853 349.184 141.51C349.184 143.167 350.527 144.51 352.184 144.51Z" fill="#EF5B5B"/>
<path d="M447.184 142.51C448.841 142.51 450.184 141.167 450.184 139.51C450.184 137.853 448.841 136.51 447.184 136.51C445.527 136.51 444.184 137.853 444.184 139.51C444.184 141.167 445.527 142.51 447.184 142.51Z" fill="#EF5B5B"/>
<path d="M161.614 54.7966C159.331 60.4828 152.89 71.6647 152.018 77.7647L152.41 77.3786C153.16 78.6582 154.011 79.8752 154.956 81.0177C156.65 79.2389 158.695 77.8323 160.963 76.8875C159.725 79.4279 159.007 82.1904 158.854 85.0123C161.284 92.6317 172.522 89.2386 179.106 88.4066C185.681 95.9274 194.428 97.8899 205.883 93.5661C209.086 93.8959 212.673 94.0961 214.918 92.2031C217.163 90.3101 215.826 86.8044 217.034 84.1528C225.637 65.2659 217.697 58.4516 210.951 49.8876C209.467 48.0029 209.473 45.1905 207.667 43.3923C205.16 40.8999 201.318 40.1332 197.776 39.5191C198.696 39.5676 199.613 39.3784 200.439 38.9697C201.265 38.5611 201.972 37.9467 202.491 37.1857C202.947 36.4191 203.182 35.5414 203.171 34.6496C203.16 33.7577 202.902 32.8863 202.427 32.1315C201.16 30.0313 198.528 28.81 195.988 28.5049C193.486 28.335 190.973 28.551 188.537 29.1455C186.958 29.353 185.43 29.8415 184.024 30.5878C183.361 30.9417 182.821 31.4897 182.478 32.1586C182.134 32.8274 182.003 33.5852 182.102 34.3305C182.313 35.0189 182.678 35.6506 183.167 36.1785C183.657 36.7064 184.26 37.1169 184.93 37.3795C185.953 37.8117 187.028 38.1061 188.128 38.2549C183.075 37.5992 177.943 38.4976 173.413 40.8306C167.736 43.8587 163.905 49.1136 161.614 54.7966Z" fill="#EF5B5B"/>
<path d="M192.354 86.6751C203.561 86.6751 212.646 77.5897 212.646 66.3824C212.646 55.175 203.561 46.0896 192.354 46.0896C181.146 46.0896 172.061 55.175 172.061 66.3824C172.061 77.5897 181.146 86.6751 192.354 86.6751Z" fill="#A0616A"/>
<path d="M172.827 55.5017C174.003 59.0577 177.366 60.2035 180.474 60.9182C181.453 61.1466 182.439 61.3594 183.434 61.5488C183.802 61.0898 184.192 60.64 184.6 60.2148C186.294 58.4359 188.339 57.0293 190.607 56.0846C189.626 58.0912 188.975 60.2424 188.677 62.4559C190.555 62.7284 192.445 62.9512 194.344 63.1242C195.951 63.4662 197.629 63.1778 199.029 62.3185C200.43 61.4591 201.447 60.0946 201.87 58.5068C203.599 61.3347 205.644 63.9978 208.44 65.1212C210.039 65.6957 211.78 65.7429 213.408 65.256C215.035 64.769 216.464 63.7734 217.485 62.4151C219.097 60.1994 220.215 57.6634 220.763 54.9785C221.557 51.8295 221.998 48.202 220.44 46.2041C219.191 44.5871 217.038 44.5581 215.052 44.7015C210.667 45.0379 206.328 45.8244 202.104 47.0488L201.747 47.8527C202.473 43.4919 200.898 39.2963 197.985 37.8041C196.02 36.8064 193.656 36.9737 191.359 37.1761C188.408 37.3077 185.493 37.8715 182.706 38.8495C179.509 40.0792 176.77 42.2668 174.864 45.1128C172.825 48.2086 171.812 52.4307 172.827 55.5017Z" fill="#EF5B5B"/>
<path d="M201.756 36.5351C201.556 36.476 202.074 36.5519 201.895 36.5567C201.984 36.5516 202.073 36.5391 202.16 36.5195C202.175 36.5165 202.377 36.4521 202.243 36.4996C202.544 36.4094 202.813 36.234 203.017 35.9944C203.494 35.4049 203.867 34.7393 204.123 34.0256C204.446 33.0824 204.964 32.2181 205.644 31.4894C205.837 31.2955 206.073 31.1499 206.333 31.0643C206.593 30.9788 206.869 30.9557 207.14 30.997C207.41 31.0383 207.667 31.1427 207.89 31.3019C208.112 31.4611 208.294 31.6706 208.42 31.9132C208.677 32.8493 208.589 33.8464 208.173 34.7232C207.882 35.6153 207.449 36.4547 206.891 37.209C205.955 38.4424 204.681 39.377 203.224 39.899C201.537 40.5116 199.698 40.5642 197.979 40.0489C197.752 39.9547 197.557 39.7964 197.418 39.5935C197.279 39.3905 197.203 39.1515 197.197 38.9057C197.192 38.6599 197.258 38.4178 197.388 38.209C197.518 38.0002 197.705 37.8336 197.928 37.7295L200.795 36.556C200.946 36.4896 201.109 36.4536 201.274 36.45C201.438 36.4464 201.602 36.4753 201.756 36.5351C201.91 36.5948 202.05 36.6843 202.169 36.7983C202.288 36.9123 202.384 37.0487 202.45 37.1996C202.517 37.3505 202.553 37.513 202.556 37.6778C202.56 37.8427 202.531 38.0066 202.471 38.1603C202.411 38.314 202.322 38.4543 202.208 38.5735C202.094 38.6926 201.957 38.788 201.807 38.8544L198.94 40.028L198.889 37.7086C199.247 37.8119 199.615 37.8748 199.986 37.8963C200.383 37.936 200.783 37.9191 201.175 37.8461C201.55 37.7969 201.919 37.707 202.275 37.5779C202.503 37.4947 202.726 37.3999 202.945 37.2941C203.024 37.2556 203.103 37.2156 203.18 37.1741C203.175 37.1771 203.508 36.9829 203.362 37.0741C203.733 36.8372 204.081 36.5662 204.401 36.2646C204.514 36.1577 204.619 36.0417 204.713 35.9178C204.876 35.7172 205.028 35.5071 205.167 35.2888C205.449 34.8265 205.673 34.3308 205.832 33.8131C205.905 33.5956 205.967 33.3744 206.017 33.1504C206.031 33.0275 206.053 32.9056 206.083 32.7857C206.19 32.5 206.063 32.9526 206.186 33.0764L206.714 33.4658C206.813 33.4954 206.918 33.5022 207.02 33.4858C207.122 33.4695 207.22 33.4303 207.305 33.3712C207.367 33.2831 207.354 33.2977 207.264 33.4151C207.159 33.5532 207.063 33.6977 206.977 33.848C206.787 34.2016 206.616 34.5647 206.463 34.9357C206.148 35.7248 205.749 36.478 205.274 37.1824C204.808 37.8948 204.129 38.4421 203.334 38.7461C202.539 39.0501 201.668 39.0954 200.846 38.8754C200.537 38.7526 200.289 38.5133 200.155 38.2093C200.022 37.9052 200.013 37.5608 200.131 37.2502C200.257 36.9442 200.496 36.6988 200.799 36.5655C201.102 36.4322 201.445 36.4213 201.756 36.5351Z" fill="#2F2E41"/>
</g>
<defs>
<clipPath id="clip0_5_2">
<rect width="722.73" height="493.998" fill="white"/>
</clipPath>
</defs>
</svg>
